<svg width="334" height="236" viewBox="0 0 334 236" fill="none" xmlns="http://www.w3.org/2000/svg">
<g opacity="0.5">
<path opacity="0.1" d="M111.674 235.185C127.871 235.185 141.001 233.081 141.001 230.484C141.001 227.887 127.871 225.782 111.674 225.782C95.4765 225.782 82.3463 227.887 82.3463 230.484C82.3463 233.081 95.4765 235.185 111.674 235.185Z" fill="#587EEC"/>
<path opacity="0.1" d="M271.093 235.317C291.304 235.317 307.689 233.213 307.689 230.616C307.689 228.019 291.304 225.915 271.093 225.915C250.881 225.915 234.497 228.019 234.497 230.616C234.497 233.213 250.881 235.317 271.093 235.317Z" fill="#587EEC"/>
<path opacity="0.1" d="M5.26568 101.772H35.812V143.328H7.50195C7.42671 143.755 7.35447 144.184 7.27622 144.614H35.812V178.128C35.7608 178.113 35.7157 178.095 35.6675 178.077C34.8609 177.758 34.0603 177.422 33.2597 177.061L32.748 176.83C31.9454 176.452 31.1428 176.051 30.3402 175.628C30.0603 175.481 29.7804 175.328 29.5035 175.172C25.0477 172.681 20.9999 169.524 17.5005 165.811C17.3981 165.712 17.3018 165.607 17.1995 165.511C16.7119 164.982 16.2333 164.447 15.7698 163.9L15.2582 163.3C14.7104 162.63 14.1807 161.942 13.666 161.245C13.5907 161.143 13.5185 161.04 13.4403 160.944C11.3471 158.047 9.60911 154.911 8.26343 151.601C8.22129 151.502 8.18517 151.394 8.14605 151.301C7.7327 150.24 7.36651 149.168 7.04748 148.087C6.90903 147.633 6.7766 147.185 6.66222 146.714C6.62009 146.575 6.58397 146.44 6.55086 146.305C4.8413 139.645 4.63965 132.726 4.63965 125.856C4.63965 125.054 4.63965 124.249 4.63965 123.453C4.63965 120.674 4.67276 117.877 4.72091 115.083C4.72091 114.359 4.75101 113.638 4.76606 112.911C4.8082 111.067 4.86839 109.222 4.94665 107.378C4.96471 106.864 4.98878 106.353 5.01587 105.842C5.01587 105.548 5.03092 105.254 5.06102 104.959C5.13325 103.89 5.19345 102.829 5.26568 101.772Z" fill="#587EEC"/>
<path opacity="0.1" d="M35.812 55.5022H19.0565C21.7802 51.2471 24.7562 47.1582 27.9685 43.2573C30.4576 40.2051 33.0851 37.2311 35.812 34.3651V55.5022Z" fill="#587EEC"/>
<path opacity="0.1" d="M35.812 56.788V100.486H5.362C5.362 100.36 5.38307 100.231 5.3921 100.105C5.41918 99.7591 5.44627 99.4136 5.47637 99.0711C5.50948 98.6686 5.5456 98.263 5.58472 97.8695C5.62385 97.4759 5.66599 96.9953 5.71113 96.5597C5.75628 96.1241 5.79842 95.6825 5.84958 95.2469C5.90075 94.8113 5.9459 94.3757 6.00007 93.9431C6.05425 93.5105 6.10241 93.0719 6.15959 92.6393C6.20474 92.2788 6.25289 91.9213 6.30105 91.5608C6.37028 91.0531 6.44251 90.5424 6.52077 90.0377C6.52077 89.9626 6.54183 89.8845 6.55387 89.8124C7.10322 86.1178 7.85173 82.4555 8.79616 78.8413C9.78475 75.05 11.0471 71.3352 12.5734 67.726C14.1956 63.9503 16.0949 60.2994 18.2559 56.803L35.812 56.788Z" fill="#587EEC"/>
<path opacity="0.1" d="M43.1047 101.769V143.328H108.348V101.769H43.1047ZM43.1047 144.611V180.3C43.4779 180.378 43.8481 180.453 44.2153 180.516C44.7149 180.612 45.2115 180.7 45.7202 180.775C45.8165 180.79 45.9158 180.805 46.0212 180.814C46.2198 180.847 46.4245 180.874 46.6231 180.901C47.1257 180.97 47.6254 181.027 48.128 181.072C48.3658 181.096 48.6066 181.117 48.8473 181.135L49.4282 181.18C49.7443 181.204 50.0573 181.222 50.3673 181.231C50.5599 181.231 50.7525 181.249 50.9512 181.255C51.1017 181.255 51.2522 181.255 51.4087 181.255C51.5652 181.255 51.7879 181.255 51.9775 181.255C52.2364 181.255 52.4952 181.255 52.751 181.255H53.0972C53.356 181.255 53.6148 181.255 53.8707 181.231H53.8887C54.0663 181.231 54.2469 181.231 54.4275 181.207C54.4776 181.21 54.5279 181.21 54.578 181.207C54.7285 181.207 54.8789 181.207 55.0234 181.186H55.1288L56.137 181.108C56.4681 181.078 56.8022 181.039 57.1393 181.003L57.8255 180.922C60.6173 180.531 63.3781 179.945 66.0874 179.167C72.1732 177.473 78.1265 175.103 84.2093 173.366C92.0739 171.128 100.763 170.029 108.363 172.766V144.611H43.1047ZM108.348 55.5023V0.175201C101.205 0.0979576 94.0811 0.931846 87.1499 2.65662C70.6292 6.79931 55.806 15.7847 43.1047 27.2605V55.4993H46.3793V56.7821H43.1047V100.486H108.348V56.7851H59.824V55.5023H108.348ZM192.149 36.8136C188.062 36.6694 183.999 35.3776 180.324 33.3829C173.296 29.5676 167.683 23.6765 161.41 18.7047C148.378 8.34945 132.215 2.10085 115.634 0.550718V55.5023H208.772L209.004 55.259L192.149 36.8136ZM200.634 35.3115L209.63 45.1651V32.728C206.617 33.1005 203.978 33.9867 200.646 35.2995L200.634 35.3115ZM209.63 189.162V144.611H190.461C190.41 144.422 190.358 144.229 190.298 144.037C190.355 144.229 190.403 144.422 190.458 144.611H115.646V176.83C116.357 177.356 117.058 177.909 117.753 178.47C118.503 179.071 119.243 179.705 119.987 180.327L120.736 180.946C121.094 181.246 121.455 181.547 121.82 181.829C122.542 182.414 123.271 182.991 124.008 183.559C124.372 183.86 124.745 184.13 125.115 184.413C130.992 188.898 137.192 192.945 143.665 196.522C145.115 197.323 146.579 198.105 148.056 198.869C149.04 199.37 150.03 199.869 151.023 200.353C152.516 201.08 154.021 201.781 155.538 202.455C169.524 208.722 184.312 213.021 199.481 215.232C202.85 215.729 206.232 216.119 209.627 216.404V189.159H209.928L209.63 189.162ZM115.646 56.7851V100.486H209.642V56.7851H115.646ZM115.646 101.769V143.328H209.642V101.769H115.646ZM216.938 32.6739V46.547L228.42 33.9717C224.616 33.3589 220.788 32.9213 216.938 32.6589V32.6739ZM216.938 101.784V143.328H308.36V101.769L216.938 101.784ZM308.026 192.461L308.348 144.611H216.938V216.881C222.826 217.128 228.724 217.058 234.605 216.671H234.708C237.517 216.495 240.313 216.238 243.096 215.902H243.159C258.006 214.177 272.524 210.311 286.259 204.423L308.026 192.461ZM325.988 108.612C325.645 107.804 325.287 107.002 324.923 106.209C324.243 104.707 323.523 103.247 322.783 101.787H315.65V143.328H333.684C333.675 131.564 330.693 119.547 325.997 108.597L325.988 108.612ZM315.65 144.626V185.783C320.73 180.922 325.022 175.361 328.113 169.004C331.83 161.35 333.531 153.062 333.669 144.62L315.65 144.626ZM315.65 89.6743V100.489H322.115C320.159 96.7662 318.004 93.1511 315.659 89.6593L315.65 89.6743ZM253.648 40.8271C253.173 40.6469 252.697 40.4636 252.218 40.2864C247.171 38.426 242.014 36.8789 236.775 35.654L219.204 54.9015L218.867 55.259L219.093 55.5053H281.63C272.92 49.5212 263.53 44.5891 253.657 40.8121L253.648 40.8271ZM283.463 56.8001H218.22L216.938 57.9717V100.486H228.176H228.194H308.372V79.8929C301.119 71.1376 292.748 63.3688 283.472 56.7851L283.463 56.8001Z" fill="#587EEC"/>
<path opacity="0.1" d="M35.812 78.8293V100.486H5.362C5.362 100.36 5.38307 100.231 5.3921 100.105C5.41918 99.7591 5.44627 99.4137 5.47637 99.0712C5.50948 98.6686 5.5456 98.2631 5.58472 97.8695C5.62385 97.476 5.66599 96.9953 5.71113 96.5597C5.75628 96.1241 5.79842 95.6825 5.84958 95.2469C5.90075 94.8113 5.9459 94.3757 6.00007 93.9431C6.05425 93.5105 6.10241 93.0719 6.15959 92.6393C6.20474 92.2789 6.25289 91.9214 6.30105 91.5609C6.37028 91.0532 6.44251 90.5425 6.52077 90.0378C6.52077 89.9627 6.54183 89.8846 6.55387 89.8125C7.10322 86.1179 7.85173 82.4555 8.79616 78.8414L35.812 78.8293Z" fill="#587EEC"/>
<path opacity="0.1" d="M5.26568 101.772H35.812V143.328H7.50195C7.42671 143.755 7.35447 144.184 7.27622 144.614H35.812V178.128C35.7608 178.113 35.7157 178.095 35.6675 178.077C34.8609 177.758 34.0603 177.422 33.2597 177.061L32.748 176.83C31.9454 176.452 31.1428 176.051 30.3402 175.628C30.0603 175.481 29.7804 175.328 29.5035 175.172C25.0477 172.681 20.9999 169.524 17.5005 165.811C17.3981 165.712 17.3018 165.607 17.1995 165.511C16.7119 164.982 16.2333 164.447 15.7698 163.9L15.2582 163.3C14.7104 162.63 14.1807 161.942 13.666 161.245C13.5907 161.143 13.5185 161.04 13.4403 160.944C11.3471 158.047 9.60911 154.911 8.26343 151.601C8.22129 151.502 8.18517 151.394 8.14605 151.301C7.7327 150.24 7.36651 149.168 7.04748 148.087C6.90903 147.633 6.7766 147.185 6.66222 146.714C6.62009 146.575 6.58397 146.44 6.55086 146.305C4.8413 139.645 4.63965 132.726 4.63965 125.856C4.63965 125.054 4.63965 124.249 4.63965 123.453C4.63965 120.674 4.67276 117.877 4.72091 115.083C4.72091 114.359 4.75101 113.638 4.76606 112.911C4.8082 111.067 4.86839 109.222 4.94665 107.378C4.96471 106.864 4.98878 106.353 5.01587 105.842C5.01587 105.548 5.03092 105.254 5.06102 104.959C5.13325 103.89 5.19345 102.829 5.26568 101.772Z" fill="#587EEC"/>
<path opacity="0.1" d="M66.0723 63.0426V100.486H43.1047V63.0426H46.3793V50.3651H59.821V63.0426H66.0723Z" fill="#587EEC"/>
<path opacity="0.1" d="M66.0723 101.769H43.1077V143.325H66.0723V101.769Z" fill="#587EEC"/>
<path opacity="0.1" d="M43.1047 144.614H66.0723V179.161C63.3631 179.938 60.6023 180.524 57.8105 180.913L57.1242 180.997C56.7872 181.036 56.4531 181.069 56.122 181.102C55.7909 181.135 55.4478 181.159 55.1137 181.18H55.0084C54.8639 181.18 54.7074 181.198 54.5659 181.201H54.4124C54.2318 181.201 54.0513 181.219 53.8707 181.225C53.6148 181.24 53.359 181.243 53.0972 181.246C52.9858 181.246 52.8805 181.246 52.7691 181.246C52.5102 181.246 52.2544 181.246 51.9956 181.246H51.4267C51.2732 181.246 51.1257 181.246 50.9662 181.246L50.3853 181.225C50.0844 181.225 49.7593 181.192 49.4463 181.171L48.8684 181.129L48.1491 181.063C47.6434 181.018 47.1408 180.961 46.6442 180.892L46.0422 180.808L45.7412 180.766C45.2386 180.687 44.742 180.603 44.2364 180.507C43.8661 180.444 43.499 180.366 43.1257 180.291L43.1047 144.614Z" fill="#587EEC"/>
<path opacity="0.1" d="M209.642 58.6206H190.704V100.483H209.642V58.6206Z" fill="#587EEC"/>
<path opacity="0.1" d="M209.645 101.769V143.328H115.646V125.402H165.714V135.977H190.704V101.769H209.645Z" fill="#587EEC"/>
<path opacity="0.1" d="M209.943 189.171H209.642V216.434C206.251 216.147 202.87 215.758 199.499 215.265C184.323 213.047 169.528 208.738 155.538 202.461C151.499 200.647 147.542 198.666 143.668 196.519C137.195 192.94 130.995 188.893 125.115 184.41C123.638 183.28 122.181 182.124 120.742 180.943C119.746 180.123 118.756 179.282 117.753 178.464C117.058 177.903 116.357 177.35 115.646 176.821V144.614H190.455C190.403 144.422 190.352 144.229 190.298 144.04C190.355 144.229 190.41 144.422 190.461 144.614H209.642V189.153C209.744 189.156 209.844 189.165 209.943 189.171Z" fill="#587EEC"/>
<path opacity="0.1" d="M259.033 55.5021H246.692V51.6749H252.224V40.2742C252.704 40.4484 253.182 40.6277 253.657 40.8119V51.6749H259.033V55.5021Z" fill="#587EEC"/>
<path opacity="0.1" d="M288.763 100.486H228.182C228.182 100.486 228.182 100.486 228.203 100.501L228.176 100.486H216.938V58.6235H220.122V89.5661H234.674V71.2409H246.695V56.788H259.036V71.2529H271.057V89.5781H288.763V100.486Z" fill="#587EEC"/>
<path opacity="0.1" d="M216.938 101.769V143.328H288.763V101.769H216.938ZM308.261 192.247L308.36 159.352H288.763V144.632H216.938V216.881C222.826 217.128 228.724 217.058 234.605 216.671H234.708C237.517 216.495 240.313 216.238 243.096 215.902H243.159C258.006 214.177 272.524 210.311 286.259 204.423" fill="#587EEC"/>
<path opacity="0.1" d="M316.926 144.614H333.681C333.534 153.052 331.836 161.341 328.122 168.995C325.031 175.355 320.736 180.916 315.662 185.773V159.337H316.926V144.614Z" fill="#587EEC"/>
<path opacity="0.1" d="M333.69 143.328H316.926V108.597H325.997C330.692 119.547 333.675 131.564 333.69 143.328Z" fill="#587EEC"/>
<path opacity="0.1" d="M209.645 70.2585H199.499V83.3836H209.645V70.2585Z" fill="#587EEC"/>
<path opacity="0.1" d="M209.645 97.4639H199.499V100.486H209.645V97.4639Z" fill="#587EEC"/>
<path opacity="0.1" d="M209.645 101.769H199.499V110.586H209.645V101.769Z" fill="#587EEC"/>
<path opacity="0.1" d="M209.645 124.669H199.499V137.794H209.645V124.669Z" fill="#587EEC"/>
<path opacity="0.1" d="M209.645 151.875H199.499V165H209.645V151.875Z" fill="#587EEC"/>
<path opacity="0.1" d="M209.642 189.153C209.744 189.153 209.844 189.153 209.943 189.171H209.642V192.22H199.499V179.08H209.642V189.153Z" fill="#587EEC"/>
<path opacity="0.1" d="M209.642 206.28V216.418C206.251 216.132 202.87 215.743 199.499 215.25V206.28H209.642Z" fill="#587EEC"/>
<path opacity="0.1" d="M159.129 142.364H115.646V143.328H159.129V142.364Z" fill="#587EEC"/>
<path opacity="0.1" d="M159.129 144.611H115.646V148.306H159.129V144.611Z" fill="#587EEC"/>
<path opacity="0.1" d="M159.129 160.419H115.646V166.361H159.129V160.419Z" fill="#587EEC"/>
<path opacity="0.1" d="M159.126 178.474V184.416H125.115C123.639 183.29 122.18 182.135 120.739 180.949C119.743 180.129 118.756 179.288 117.75 178.474H159.126Z" fill="#587EEC"/>
<path opacity="0.1" d="M159.126 196.525V202.461H155.535C151.5 200.645 147.544 198.663 143.668 196.516L159.126 196.525Z" fill="#587EEC"/>
<path opacity="0.1" d="M243.168 105.797H234.608V114.341H243.168V105.797Z" fill="#587EEC"/>
<path opacity="0.1" d="M57.8316 65.9897H49.2717V74.5335H57.8316V65.9897Z" fill="#587EEC"/>
<path opacity="0.1" d="M57.8316 85.835H49.2717V94.3787H57.8316V85.835Z" fill="#587EEC"/>
<path opacity="0.1" d="M57.8316 105.68H49.2717V114.224H57.8316V105.68Z" fill="#587EEC"/>
<path opacity="0.1" d="M57.8316 125.523H49.2717V134.066H57.8316V125.523Z" fill="#587EEC"/>
<path opacity="0.1" d="M57.8316 145.368H49.2717V153.912H57.8316V145.368Z" fill="#587EEC"/>
<path opacity="0.1" d="M57.8316 165.213H49.2717V173.757H57.8316V165.213Z" fill="#587EEC"/>
<path opacity="0.1" d="M275.845 105.797H267.285V114.341H275.845V105.797Z" fill="#587EEC"/>
<path opacity="0.1" d="M243.168 126.871H234.608V135.415H243.168V126.871Z" fill="#587EEC"/>
<path opacity="0.1" d="M275.845 126.871H267.285V135.415H275.845V126.871Z" fill="#587EEC"/>
<path opacity="0.1" d="M243.168 147.942H234.608V156.486H243.168V147.942Z" fill="#587EEC"/>
<path opacity="0.1" d="M275.845 147.942H267.285V156.486H275.845V147.942Z" fill="#587EEC"/>
<path opacity="0.1" d="M243.168 169.016H234.608V177.56H243.168V169.016Z" fill="#587EEC"/>
<path opacity="0.1" d="M275.845 169.016H267.285V177.56H275.845V169.016Z" fill="#587EEC"/>
<path opacity="0.1" d="M243.168 190.09H234.608V198.634H243.168V190.09Z" fill="#587EEC"/>
<path opacity="0.1" d="M275.845 190.09H267.285V198.634H275.845V190.09Z" fill="#587EEC"/>
<path opacity="0.1" d="M234.608 216.671V211.161H243.165V215.887L234.608 216.671Z" fill="#587EEC"/>
<path opacity="0.1" d="M6.51776 89.8065V94.6942H35.812V89.8065H6.51776ZM9.43725 94.3878H7.04748V90.1069H9.45531L9.43725 94.3878ZM12.3537 94.3878H9.9459V90.1069H12.3537V94.3878ZM15.2642 94.3878H12.8564V90.1069H15.2642V94.3878ZM18.1807 94.3878H15.7759V90.1069H18.1837L18.1807 94.3878ZM21.0941 94.3878H18.6863V90.1069H21.0941V94.3878ZM24.0106 94.3878H21.6028V90.1069H24.0106V94.3878ZM26.9271 94.3878H24.5193V90.1069H26.9271V94.3878ZM29.8406 94.3878H27.4327V90.1069H29.8406V94.3878ZM32.754 94.3878H30.3462V90.1069H32.754V94.3878ZM35.6675 94.3878H33.2597V90.1069H35.6675V94.3878Z" fill="#587EEC"/>
<path opacity="0.1" d="M6.51776 104.028V108.916H35.812V104.028H6.51776ZM9.43725 108.606H7.04748V104.338H9.45531L9.43725 108.606ZM12.3537 108.606H9.9459V104.338H12.3537V108.606ZM15.2642 108.606H12.8564V104.338H15.2642V108.606ZM18.1807 108.606H15.7759V104.338H18.1837L18.1807 108.606ZM21.0941 108.606H18.6863V104.338H21.0941V108.606ZM24.0106 108.606H21.6028V104.338H24.0106V108.606ZM26.9271 108.606H24.5193V104.338H26.9271V108.606ZM29.8406 108.606H27.4327V104.338H29.8406V108.606ZM32.754 108.606H30.3462V104.338H32.754V108.606ZM35.6675 108.606H33.2597V104.338H35.6675V108.606Z" fill="#587EEC"/>
<path opacity="0.1" d="M6.51776 118.255V123.152H35.812V118.255H6.51776ZM9.43725 122.834H7.04748V118.562H9.45531L9.43725 122.834ZM12.3537 122.834H9.9459V118.562H12.3537V122.834ZM15.2642 122.834H12.8564V118.562H15.2642V122.834ZM18.1807 122.834H15.7759V118.562H18.1837L18.1807 122.834ZM21.0941 122.834H18.6863V118.562H21.0941V122.834ZM24.0106 122.834H21.6028V118.562H24.0106V122.834ZM26.9271 122.834H24.5193V118.562H26.9271V122.834ZM29.8406 122.834H27.4327V118.562H29.8406V122.834ZM32.754 122.834H30.3462V118.562H32.754V122.834ZM35.6675 122.834H33.2597V118.562H35.6675V122.834Z" fill="#587EEC"/>
<path opacity="0.1" d="M6.51776 132.483V137.365H35.812V132.483H6.51776ZM9.43725 137.061H7.04748V132.786H9.45531L9.43725 137.061ZM12.3537 137.061H9.9459V132.786H12.3537V137.061ZM15.2642 137.061H12.8564V132.786H15.2642V137.061ZM18.1807 137.061H15.7759V132.786H18.1837L18.1807 137.061ZM21.0941 137.061H18.6863V132.786H21.0941V137.061ZM24.0106 137.061H21.6028V132.786H24.0106V137.061ZM26.9271 137.061H24.5193V132.786H26.9271V137.061ZM29.8406 137.061H27.4327V132.786H29.8406V137.061ZM32.754 137.061H30.3462V132.786H32.754V137.061ZM35.6675 137.061H33.2597V132.786H35.6675V137.061Z" fill="#587EEC"/>
<path opacity="0.1" d="M6.64417 146.708C6.76155 147.167 6.89398 147.627 7.03243 148.081V147.014H9.44025V151.286H8.15207C8.19119 151.385 8.23032 151.493 8.26945 151.586H35.812V146.708H6.64417ZM12.3628 151.286H9.95493V147.014H12.3628V151.286ZM15.2732 151.286H12.8654V147.014H15.2732V151.286ZM18.1897 151.286H15.7758V147.014H18.1837L18.1897 151.286ZM21.1032 151.286H18.6953V147.014H21.1032V151.286ZM24.0196 151.286H21.6118V147.014H24.0196V151.286ZM26.9361 151.286H24.5283V147.014H26.9361V151.286ZM29.8496 151.286H27.4418V147.014H29.8496V151.286ZM32.7631 151.286H30.3552V147.014H32.7631V151.286ZM35.6765 151.286H33.2687V147.014H35.6765V151.286Z" fill="#587EEC"/>
<path opacity="0.1" d="M13.4463 160.935C13.5215 161.031 13.5938 161.139 13.672 161.236H15.2642V163.287C15.4358 163.492 15.6043 163.696 15.7789 163.888V161.224H18.1867V165.51H17.2115C17.3078 165.61 17.4011 165.715 17.5125 165.811H35.821V160.935H13.4463ZM21.0942 165.51H18.6863V161.242H21.0942V165.51ZM24.0106 165.51H21.6028V161.242H24.0106V165.51ZM26.9271 165.51H24.5193V161.242H26.9271V165.51ZM29.8406 165.51H27.4328V161.242H29.8406V165.51ZM32.7541 165.51H30.3462V161.242H32.7541V165.51ZM35.6675 165.51H33.2597V161.242H35.6675V165.51Z" fill="#587EEC"/>
<path opacity="0.1" d="M29.5154 175.16C29.7893 175.316 30.0692 175.46 30.3522 175.616V175.466H32.76V176.818L33.2717 177.055V175.466H35.6795V178.065C35.7257 178.088 35.7741 178.106 35.824 178.119V175.16H29.5154Z" fill="#587EEC"/>
<path opacity="0.1" d="M228.182 100.486H228.2H228.182ZM209.642 189.15H209.943H209.642ZM190.298 144.037C190.355 144.229 190.404 144.421 190.458 144.611C190.41 144.421 190.358 144.229 190.298 144.037ZM228.182 100.477H228.2H228.182ZM46.3914 55.4932V56.7759H59.8361V55.4932H46.3914ZM209.642 189.15H209.943H209.642ZM190.298 144.037C190.355 144.229 190.404 144.421 190.458 144.611C190.41 144.421 190.358 144.229 190.298 144.037ZM228.182 100.477H228.2H228.182ZM209.642 189.141H209.943H209.642ZM190.298 144.037C190.355 144.229 190.404 144.421 190.458 144.611C190.41 144.421 190.358 144.229 190.298 144.037Z" fill="#587EEC"/>
<path d="M140.032 114.23C140.032 114.23 138.846 114.065 138.846 112.34C138.846 110.616 137.997 107.395 137.997 107.395C137.997 107.38 137.263 101.787 136.248 100.898C135.234 100.008 133.931 94.7871 133.931 94.7871C133.931 94.7871 133.708 91.9542 133.254 91.3444C132.799 90.7345 132.185 89.2415 131.279 87.1116C130.373 84.9816 126.596 83.5066 126.596 83.5066C126.596 83.5066 119.767 79.5532 117.832 78.2644C117.656 78.1585 117.491 78.0347 117.341 77.8949C117.004 77.4533 115.535 77.4443 115.535 77.4443C115.382 76.4769 115.234 75.3654 115.186 74.359C115.186 74.2509 115.186 74.1427 115.171 74.0346C117.329 72.7614 118.954 70.7539 119.749 68.3808C119.785 68.2666 119.815 68.1465 119.848 68.0323C119.977 67.9898 120.096 67.9208 120.197 67.8298C120.299 67.7387 120.379 67.6276 120.435 67.5036C120.61 67.1161 120.613 66.6624 120.829 66.3019C121.082 65.8753 121.564 65.647 121.943 65.3256C122.9 64.5145 123.147 63.1476 123.102 61.9039C123.072 60.8975 122.909 59.8821 122.972 58.8817L122.99 58.6294C123.008 58.4792 123.029 58.329 123.057 58.1848C123.204 57.4397 123.526 56.7368 123.707 55.9978C123.887 55.2587 123.905 54.4266 123.484 53.7897C122.867 52.8554 121.582 52.6692 120.453 52.573C119.174 52.4649 118.03 52.6061 117.212 51.5456C116.828 50.9914 116.397 50.4717 115.923 49.9925C115.755 49.8363 114.117 48.8389 114.117 48.7728C112.519 48.0341 110.708 47.8954 109.016 48.3823C108.167 48.6286 107.367 49.0312 106.506 49.2325C104.649 49.6711 102.512 49.1964 100.935 50.2569C100.056 50.8577 99.5291 51.813 99.0355 52.7443C98.6342 53.5113 98.2268 54.2774 97.8135 55.0424C97.1483 56.3012 96.4711 57.5809 96.1912 58.9749C96.1324 59.2782 96.0961 59.5854 96.0829 59.8941V59.9091C96.0829 60.0203 96.0829 60.1314 96.0829 60.2426V60.3838C96.0829 60.4889 96.0829 60.5911 96.1009 60.6842C96.119 60.7773 96.116 60.8074 96.125 60.8705C96.134 60.9335 96.1491 61.0747 96.1671 61.1709C96.1852 61.267 96.2213 61.4352 96.2574 61.5674C96.2725 61.6245 96.2935 61.6786 96.3116 61.7326C96.3417 61.8348 96.3778 61.9339 96.4169 62.0331C96.438 62.0841 96.4591 62.1382 96.4832 62.1893C96.5283 62.2944 96.5825 62.3966 96.6367 62.4897C96.6607 62.5317 96.6788 62.5708 96.7029 62.6099C96.7869 62.7496 96.8793 62.884 96.9798 63.0124C97.6239 63.8145 98.572 64.3252 99.2732 65.0762C99.2732 65.1063 99.2732 65.1363 99.2732 65.1634C99.2732 65.2475 99.2732 65.3286 99.2732 65.4127C99.3104 67.0877 99.7571 68.7282 100.574 70.1916C101.392 71.6549 102.555 72.8969 103.962 73.8093C103.962 73.9234 103.978 74.0406 103.984 74.1547C104.042 75.0465 104.031 75.9414 103.95 76.8314C103.828 76.6873 103.674 76.5726 103.502 76.4956C103.329 76.4187 103.14 76.3815 102.951 76.3868C102.822 76.3805 102.692 76.3916 102.566 76.4199L102.539 76.3988V76.4259C101.877 76.5881 101.061 77.276 100.282 79.2317C100.282 79.2317 97.9098 81.8994 96.1039 81.7882C94.2981 81.6771 89.7262 84.5641 89.7262 84.5641C89.7262 84.5641 85.2657 87.454 84.3086 90.3981C83.7736 92.0675 83.1322 93.7011 82.3884 95.2888L76.8744 106.629L75.8571 115.627C75.8571 115.627 76.4199 119.628 76.3086 120.238C76.1972 120.848 78.6231 126.349 78.6231 126.349C78.6231 126.349 86.6382 140.405 89.9128 141.126L90.1476 140.961C90.2877 141.034 90.4363 141.089 90.59 141.126L91.2642 140.651C91.3047 141.18 91.2875 141.712 91.213 142.237C90.7616 143.625 91.3816 152.683 92.1701 154.458C92.9587 156.234 92.6788 179.513 92.6788 179.513L92.5674 181.567C92.5674 181.567 92.5674 181.634 92.5945 181.748L92.5674 182.234L92.6487 182.276C92.7331 182.928 92.7056 183.59 92.5674 184.232C92.2845 185.133 92.1701 187.681 92.1701 187.681C92.1701 187.681 89.9158 202.065 90.9843 204.955C92.0528 207.845 92.9617 211.011 92.9617 211.011C92.9617 211.011 94.0904 214.616 93.0159 215.232C91.9414 215.848 88.8865 216.881 89.5155 218.383C90.0874 219.771 92.2574 223.49 92.5795 224.034L92.5524 224.319L92.1099 229.105C92.1816 229.737 92.3533 230.353 92.6186 230.931C93.1032 231.974 94.0452 233.055 95.8361 232.938C96.137 232.917 96.4862 232.881 96.8233 232.836C100.101 232.397 104.137 230.937 104.137 230.937C103.927 230.805 103.735 230.646 103.565 230.466C103.404 230.31 103.276 230.123 103.19 229.917C103.104 229.71 103.06 229.488 103.063 229.264C103.111 228.393 101.476 224.241 101.07 223.22C101.007 223.073 100.974 222.988 100.974 222.988C100.974 222.988 104.7 219.101 104.08 215.655C104.08 215.655 99.9565 213.252 101.314 211.933C102.671 210.614 105.097 206.826 105.097 206.826C105.097 206.826 105.209 192.662 105.097 190.547C104.981 189.079 105.051 187.602 105.305 186.152C105.35 185.932 105.404 185.719 105.461 185.509C107.339 185.789 109.234 185.932 111.132 185.939C111.824 185.939 112.528 185.938 113.239 185.896C113.239 186.097 113.248 186.313 113.266 186.545C113.422 190.054 113.714 196.207 113.952 198.493C114.289 201.77 116.152 210.602 116.152 210.602C116.152 210.602 112.598 212.88 116.772 218.491C116.772 218.491 116.772 220.525 116.495 220.819C116.2 221.782 115.961 222.761 115.782 223.752C115.607 224.809 115.535 225.878 115.818 226.434C116.495 227.762 120.558 227.654 120.558 227.654L120.658 227.636C121.425 227.557 122.2 227.63 122.938 227.853C123.677 228.075 124.363 228.441 124.959 228.931C126.503 230.168 132.363 229.625 135.535 229.231C136.778 229.075 137.609 228.931 137.609 228.931C137.649 228.79 137.663 228.644 137.651 228.498C137.618 227.72 137.007 226.014 132.865 224.491C132.865 224.491 128.971 221.877 129.025 219.6H128.944H128.492C128.82 219.582 129.031 219.6 129.031 219.6C129.031 219.6 127.505 214.042 128.128 213.592C128.751 213.141 126.885 206.982 126.885 206.982C126.885 206.982 125.817 196.648 125.759 195.924C125.762 195.303 125.856 194.685 126.039 194.092L125.759 188.426C125.759 188.426 125.705 186.542 125.759 185.929C125.75 185.398 125.707 184.867 125.63 184.34C125.603 184.13 125.576 183.911 125.546 183.694C127.005 183.325 127.953 182.982 127.953 182.982L127.785 163.26C129.025 160.857 129.254 155.585 129.248 151.845C129.248 149.441 129.139 147.663 129.139 147.663L130.834 144.902C130.834 144.902 131.225 141.598 130.605 140.874C130.331 140.546 130.455 140.207 130.68 139.927C130.798 139.834 130.921 139.75 131.051 139.675C131.051 139.675 131.032 139.648 131.011 139.609C131.13 139.51 131.255 139.421 131.388 139.341C131.388 139.341 130.786 138.41 131.324 138.017C131.83 138.359 132.282 138.617 132.625 138.828C132.601 139.047 132.576 139.173 132.576 139.173L132.721 138.873C133.052 139.059 133.254 139.173 133.254 139.173C133.254 139.173 135.908 133.895 135.851 133.117C135.794 132.339 137.657 129.061 137.657 129.061C137.657 129.061 137.883 127.34 138.9 126.619C139.917 125.898 139.689 120.674 139.689 120.674C139.689 120.674 139.972 117.952 140.649 116.84C141.326 115.729 140.032 114.23 140.032 114.23ZM89.2386 111.914L89.2898 113.172C88.9888 112.689 88.7721 112.34 88.7721 112.34L89.2386 111.914Z" fill="url(#paint0_linear_6_207)"/>
<path d="M133.398 136.893L132.748 139.657C132.748 139.657 127.541 137.004 126.602 133.634C125.663 130.263 128.173 128.983 128.173 128.983L133.025 131.035L133.398 136.893Z" fill="white"/>
<path opacity="0.1" d="M133.398 136.893L132.748 139.657C132.748 139.657 127.541 137.004 126.602 133.634C125.663 130.263 128.173 128.983 128.173 128.983L133.025 131.035L133.398 136.893Z" fill="black"/>
<path d="M104.176 230.956C104.176 230.956 99.3606 232.722 96.0498 232.944C94.2921 233.061 93.3681 231.986 92.8925 230.95C92.6328 230.373 92.4652 229.76 92.3959 229.132L92.8263 224.37L93.0551 221.835L100.089 220.011L101.085 223.052L101.178 223.283C101.579 224.298 103.183 228.429 103.135 229.291C103.133 229.512 103.176 229.731 103.26 229.935C103.345 230.139 103.47 230.323 103.628 230.478C103.79 230.66 103.974 230.82 104.176 230.956Z" fill="white"/>
<path d="M137.07 228.534C137.082 228.679 137.068 228.824 137.028 228.964C137.028 228.964 126.729 230.679 124.622 228.964C124.028 228.463 123.335 228.091 122.589 227.873C121.843 227.655 121.059 227.594 120.288 227.696C120.288 227.696 116.303 227.804 115.637 226.495C115.361 225.945 115.433 224.878 115.604 223.827C115.779 222.842 116.013 221.868 116.303 220.91L116.462 220.784L117.41 220.024L128.51 219.696H128.595C128.54 221.961 132.363 224.56 132.363 224.56C136.423 226.062 137.022 227.759 137.07 228.534Z" fill="white"/>
<path opacity="0.1" d="M137.07 228.534C137.081 228.679 137.065 228.824 137.025 228.964C137.025 228.964 126.729 230.679 124.622 228.964C124.028 228.463 123.336 228.092 122.59 227.873C121.844 227.655 121.061 227.595 120.291 227.696C120.291 227.696 116.303 227.804 115.64 226.494C115.364 225.942 115.433 224.878 115.604 223.827C117.139 223.98 119.562 224.362 120.513 225.272C121.952 226.657 124.39 228.039 125.886 228.147C127.057 228.222 134.06 228.444 137.07 228.534Z" fill="black"/>
<path opacity="0.1" d="M104.176 230.956C104.176 230.956 99.3606 232.722 96.0498 232.944C94.2921 233.061 93.3681 231.986 92.8956 230.947C94.1206 231.358 95.8211 231.791 96.715 231.394C97.7744 230.926 101.531 230.622 103.638 230.493C103.798 230.668 103.979 230.823 104.176 230.956Z" fill="black"/>
<path d="M111.321 88.6047C107.349 87.0636 102.238 81.9716 103.514 79.5924C103.797 78.9919 103.966 78.3439 104.011 77.6817C104.093 76.7828 104.105 75.8788 104.047 74.978C103.957 73.5027 103.779 72.034 103.514 70.58C103.514 70.58 115.917 70.8593 115.195 72.6828C114.984 73.2176 114.951 74.1459 115.008 75.1853C115.066 76.2247 115.216 77.3993 115.373 78.3937C115.589 79.7576 115.806 80.797 115.806 80.797C115.806 80.797 115.048 81.8575 114.602 81.9145C114.157 81.9716 117.022 90.8008 111.321 88.6047Z" fill="#CF6F80"/>
<path opacity="0.1" d="M101.169 223.283L101.076 223.385C97.3681 218.909 92.8835 224.488 92.8835 224.488L92.8173 224.37L93.0461 221.835L100.08 220.011L101.076 223.052L101.169 223.283Z" fill="black"/>
<path opacity="0.1" d="M128.598 220.012C128.598 220.012 125.889 219.954 124.444 221.228C122.999 222.502 116.017 221.505 116.318 221.228C116.407 221.091 116.461 220.934 116.474 220.772L117.422 220.012L128.522 219.684C128.564 219.885 128.598 220.012 128.598 220.012Z" fill="black"/>
<path d="M105.783 184.86C105.582 185.358 105.429 185.874 105.326 186.401C105.075 187.845 105.005 189.314 105.118 190.775C105.23 192.878 105.118 206.971 105.118 206.971C105.118 206.971 102.738 210.729 101.41 212.054C100.083 213.378 104.119 215.758 104.119 215.758C104.721 219.182 101.073 223.052 101.073 223.052C97.3651 218.576 92.8805 224.157 92.8805 224.157C92.8805 224.157 90.4426 219.951 89.8346 218.449C89.2267 216.947 92.2154 215.908 93.2658 215.298C94.3162 214.688 93.2146 211.092 93.2146 211.092C93.2146 211.092 92.3267 207.941 91.2733 205.066C90.2199 202.191 92.4351 187.879 92.4351 187.879C92.4351 187.879 92.5495 185.338 92.8234 184.452C92.9615 183.812 92.989 183.154 92.9046 182.505C92.8866 182.286 92.8655 182.102 92.8504 181.979C92.8354 181.856 92.8234 181.799 92.8234 181.799L92.8655 181.727L94.3704 178.927C94.3704 178.927 106.506 183.097 105.783 184.86Z" fill="#587EEC"/>
<path d="M128.598 219.681C128.598 219.681 125.889 219.624 124.444 220.883C122.999 222.142 116.017 221.159 116.318 220.883C116.619 220.607 116.595 218.561 116.595 218.561C112.498 212.979 115.993 210.714 115.993 210.714C115.993 210.714 114.163 201.927 113.832 198.667C113.6 196.39 113.314 190.271 113.16 186.777C113.094 185.275 113.055 184.241 113.055 184.241L116.402 183.569L116.832 183.481L124.905 181.865C124.905 181.865 125.127 183.367 125.278 184.596C125.353 185.121 125.395 185.649 125.404 186.179C125.35 186.78 125.404 188.661 125.404 188.661L125.678 194.299C125.499 194.891 125.407 195.505 125.404 196.123C125.458 196.841 126.509 207.121 126.509 207.121C126.509 207.121 128.336 213.255 127.713 213.697C127.09 214.139 128.598 219.681 128.598 219.681Z" fill="#587EEC"/>
<path opacity="0.1" d="M115.195 72.6828C114.984 73.2176 114.951 74.1459 115.008 75.1853C113.347 76.1839 111.437 76.6944 109.498 76.6583C107.559 76.6221 105.67 76.0408 104.047 74.981C103.957 73.5047 103.78 72.035 103.514 70.58C103.514 70.58 115.917 70.8533 115.195 72.6828Z" fill="black"/>
<path d="M119.99 66.0438C119.992 67.1263 119.821 68.2023 119.484 69.2311C118.73 71.5364 117.184 73.5014 115.118 74.7788C113.053 76.0562 110.602 76.5638 108.198 76.2118C105.794 75.8598 103.593 74.671 101.982 72.8554C100.371 71.0398 99.4557 68.7144 99.3967 66.2901C99.3967 66.206 99.3967 66.1279 99.3967 66.0438C99.3733 64.6792 99.6224 63.3236 100.129 62.0561C100.636 60.7886 101.391 59.6345 102.35 58.6613C103.308 57.688 104.452 56.915 105.713 56.3873C106.974 55.8596 108.327 55.5879 109.695 55.5879C111.062 55.5879 112.416 55.8596 113.677 56.3873C114.938 56.915 116.081 57.688 117.039 58.6613C117.998 59.6345 118.753 60.7886 119.26 62.0561C119.767 63.3236 120.016 64.6792 119.993 66.0438H119.99Z" fill="#CF6F80"/>
<path opacity="0.1" d="M111.321 88.6048C107.349 87.0637 102.238 81.9717 103.514 79.5924C103.797 78.992 103.966 78.344 104.011 77.6818L109.449 82.1429L112.814 84.8977L115.373 78.3967C115.589 79.7606 115.806 80.8 115.806 80.8C115.806 80.8 115.048 81.8605 114.602 81.9176C114.157 81.9747 117.022 90.8008 111.321 88.6048Z" fill="black"/>
<path d="M125.386 108.321L120.844 184.476L114.921 184.863L99.5833 140.705L102.099 88.2803L102.629 77.2041L109.449 82.7948L112.817 85.5496L115.451 78.8594L120.348 83.1192L125.386 108.321Z" fill="#587EEC"/>
<path opacity="0.1" d="M105.783 184.86C105.582 185.358 105.429 185.874 105.326 186.401C101.016 185.737 96.83 184.432 92.9076 182.529L92.8264 182.487L92.8534 182.003L92.8685 181.751L94.3734 178.951C94.3734 178.951 106.506 183.097 105.783 184.86Z" fill="black"/>
<path opacity="0.1" d="M116.471 186.413C115.369 186.6 114.258 186.727 113.142 186.792C113.076 185.29 113.037 184.256 113.037 184.256L116.384 183.583L116.471 186.413Z" fill="black"/>
<path opacity="0.1" d="M125.26 184.611C123.12 185.167 119.815 185.792 116.856 185.401L116.814 183.496L124.887 181.88C124.887 181.88 125.109 183.367 125.26 184.611Z" fill="black"/>
<path opacity="0.1" d="M116.802 185.749C104.462 187.852 93.1604 181.823 93.1604 181.823L93.2688 179.78C93.2688 179.78 93.5487 156.621 92.7722 154.846C91.9956 153.07 91.3907 144.067 91.8301 142.685C92.2695 141.303 90.2259 120.581 90.2259 120.581L89.8948 112.169L77.7774 107.269L83.195 95.9979C83.9268 94.4176 84.5561 92.792 85.0791 91.1312C86.0212 88.2052 90.3944 85.3303 90.3944 85.3303C90.3944 85.3303 94.879 82.4583 96.6518 82.5665C98.4245 82.6746 100.748 80.025 100.748 80.025C102.464 75.66 104.017 77.6367 104.017 77.6367C104.017 77.844 104.017 77.6367 103.932 78.2826C103.33 83.0742 113.666 98.215 113.814 98.4824L114.798 122.413L115.794 152.698L116.802 185.749Z" fill="black"/>
<path d="M116.471 185.749C104.131 187.852 92.8263 181.823 92.8263 181.823L92.9376 179.78C92.9376 179.78 93.2175 156.621 92.438 154.846C91.6585 153.07 91.0565 144.067 91.499 142.685C91.9414 141.303 89.8947 120.581 89.8947 120.581L89.5607 112.169L77.4373 107.251L82.8549 95.98C83.585 94.399 84.2143 92.7735 84.739 91.1133C85.678 88.1873 90.0543 85.3123 90.0543 85.3123C90.0543 85.3123 94.5388 82.4404 96.3086 82.5485C98.0783 82.6567 100.405 80.007 100.405 80.007C102.123 75.642 104.017 77.6187 104.017 77.6187C104.017 77.826 103.836 77.9191 103.932 78.2646C105.257 82.912 113.335 98.197 113.482 98.4644L114.479 122.395L115.475 152.68L116.471 185.749Z" fill="white"/>
<path opacity="0.1" d="M113.145 99.1463C111.818 98.5936 104.787 90.5815 104.787 90.5815V88.758C104.531 88.1572 103.011 88.5237 101.777 88.9443L102.307 77.868L102.909 78.3667C104.227 83.0111 112.992 98.8789 113.145 99.1463Z" fill="black"/>
<path d="M113.479 98.4824C112.149 97.9296 105.118 89.9176 105.118 89.9176V88.0941C104.862 87.4933 103.343 87.8598 102.109 88.2803L102.641 77.2041L103.243 77.7028C104.564 82.3472 113.332 98.218 113.479 98.4824Z" fill="white"/>
<path opacity="0.1" d="M93.1604 138.44C93.3259 138.44 101.741 137.557 101.741 137.557C101.741 137.557 106.837 147.558 106.503 149.991C106.169 152.424 105.564 154.578 103.514 154.197C101.464 153.815 92.4832 154.497 92.4832 154.497L93.1604 138.44Z" fill="black"/>
<path d="M92.8263 137.777C92.9918 137.777 101.407 136.893 101.407 136.893C101.407 136.893 106.5 146.897 106.169 149.327C105.838 151.758 105.227 153.915 103.18 153.533C101.133 153.152 92.1491 153.834 92.1491 153.834L92.8263 137.777Z" fill="white"/>
<path d="M99.168 133.081C99.168 133.081 106.891 137.224 107.057 138.488C107.222 139.753 103.126 137.936 102.241 137.716C101.659 137.576 101.066 137.484 100.468 137.44L94.566 137.599L99.168 133.081Z" fill="#CF6F80"/>
<path opacity="0.1" d="M110.99 99.6629C111.439 99.6629 111.803 99.2997 111.803 98.8518C111.803 98.4038 111.439 98.0406 110.99 98.0406C110.542 98.0406 110.178 98.4038 110.178 98.8518C110.178 99.2997 110.542 99.6629 110.99 99.6629Z" fill="black"/>
<path d="M110.99 99.3327C111.439 99.3327 111.803 98.9695 111.803 98.5216C111.803 98.0736 111.439 97.7104 110.99 97.7104C110.542 97.7104 110.178 98.0736 110.178 98.5216C110.178 98.9695 110.542 99.3327 110.99 99.3327Z" fill="#3F3D56"/>
<path opacity="0.1" d="M112.486 134.775C112.935 134.775 113.299 134.412 113.299 133.964C113.299 133.516 112.935 133.153 112.486 133.153C112.037 133.153 111.674 133.516 111.674 133.964C111.674 134.412 112.037 134.775 112.486 134.775Z" fill="black"/>
<path d="M112.486 134.442C112.935 134.442 113.299 134.079 113.299 133.631C113.299 133.183 112.935 132.82 112.486 132.82C112.037 132.82 111.674 133.183 111.674 133.631C111.674 134.079 112.037 134.442 112.486 134.442Z" fill="#3F3D56"/>
<path opacity="0.1" d="M111.8 117.219C112.249 117.219 112.613 116.856 112.613 116.408C112.613 115.96 112.249 115.597 111.8 115.597C111.351 115.597 110.987 115.96 110.987 116.408C110.987 116.856 111.351 117.219 111.8 117.219Z" fill="black"/>
<path d="M111.8 116.889C112.249 116.889 112.613 116.526 112.613 116.078C112.613 115.63 112.249 115.267 111.8 115.267C111.351 115.267 110.987 115.63 110.987 116.078C110.987 116.526 111.351 116.889 111.8 116.889Z" fill="#3F3D56"/>
<path d="M130.533 137.272C130.533 137.272 131.087 138.101 130.533 138.488C129.979 138.876 130.587 139.813 130.587 139.813C130.587 139.813 129.206 140.621 129.814 141.348C130.422 142.075 130.036 145.359 130.036 145.359L128.375 148.105C128.375 148.105 128.474 149.874 128.48 152.265C128.48 155.996 128.261 161.242 127.045 163.633L127.213 183.253C127.213 183.253 121.395 185.374 116.525 184.728L115.803 153.245C115.803 153.245 116.856 135.391 117.245 131.966C117.472 130.188 117.564 128.396 117.522 126.604C117.522 126.604 117.356 121.245 116.799 118.757C116.799 118.757 116.197 107.981 116.137 104.998C116.11 103.571 116.185 99.4076 116.27 95.4481C116.363 91.1192 116.468 87.0365 116.468 87.0365L115.37 78.3606C115.37 78.3606 116.468 78.2495 116.799 78.6911C116.948 78.8293 117.109 78.9531 117.281 79.0606C119.177 80.3403 125.877 84.2757 125.877 84.2757C125.877 84.2757 129.585 85.7478 130.473 87.8567C131.361 89.9656 131.978 91.4616 132.408 92.0625C132.838 92.6633 133.073 95.4872 133.073 95.4872C133.073 95.4872 134.349 100.684 135.346 101.565C136.342 102.445 137.07 108.044 137.07 108.044L128.267 114.954C128.267 114.954 127.493 126.448 127.327 126.892C127.162 127.337 130.533 137.272 130.533 137.272Z" fill="white"/>
<path d="M130.867 137.272C130.867 137.272 131.418 138.101 130.867 138.489C130.316 138.876 130.918 139.813 130.918 139.813C130.918 139.813 129.546 140.63 130.148 141.357C130.75 142.084 130.37 145.368 130.37 145.368L128.709 148.114C128.709 148.114 128.808 149.883 128.817 152.275C128.817 156.006 128.598 161.251 127.382 163.642L127.547 183.262C127.547 183.262 121.72 185.383 116.856 184.737L116.137 153.254C116.137 153.254 117.19 135.4 117.579 131.976C117.806 130.198 117.898 128.405 117.853 126.613C117.853 126.613 117.687 121.254 117.133 118.766C117.133 118.766 116.531 107.991 116.468 105.007C116.441 103.581 116.519 99.4168 116.601 95.4574C116.694 91.1284 116.799 87.0458 116.799 87.0458L115.349 78.2527C115.349 78.2527 116.799 78.2527 117.133 78.7003C117.28 78.8402 117.442 78.9641 117.615 79.0698C119.511 80.3496 126.214 84.285 126.214 84.285C126.214 84.285 129.919 85.757 130.807 87.8659C131.695 89.9748 132.312 91.4709 132.745 92.0717C133.178 92.6725 133.407 95.4964 133.407 95.4964C133.407 95.4964 134.683 100.694 135.68 101.574C136.676 102.454 137.395 108.042 137.395 108.042L128.592 114.951C128.592 114.951 127.818 126.445 127.649 126.89C127.481 127.334 130.867 137.272 130.867 137.272Z" fill="white"/>
<path opacity="0.1" d="M120.324 89.5961L121.118 91.9093L116.935 96.1151C117.028 91.7891 117.133 87.7035 117.133 87.7035L115.683 78.9104C115.683 78.9104 117.133 78.9104 117.467 79.358C117.614 79.4975 117.775 79.6205 117.949 79.7245L121.507 89.9686L120.324 89.5961Z" fill="black"/>
<path d="M119.99 88.9323L120.787 91.2455L116.604 95.4513C116.697 91.1223 116.802 87.0397 116.802 87.0397L115.349 78.2466C115.349 78.2466 116.802 78.2466 117.133 78.6942C117.281 78.8333 117.442 78.9571 117.615 79.0637L121.175 89.3048L119.99 88.9323Z" fill="white"/>
<path opacity="0.1" d="M119.99 66.0438C119.992 67.1263 119.821 68.2023 119.484 69.2311C119.427 69.24 119.369 69.2374 119.313 69.2235C119.257 69.2095 119.205 69.1846 119.159 69.15C119.081 66.4463 117.747 63.9078 116.107 61.7479C115.646 61.0957 115.088 60.5182 114.452 60.0355C113.808 59.5531 113.008 59.3271 112.206 59.4016C111.303 59.5248 110.506 60.1376 109.594 60.2157C108.39 60.3149 107.312 59.4827 106.118 59.4407C105.632 59.4453 105.153 59.5532 104.712 59.7573C104.271 59.9615 103.879 60.257 103.562 60.6243C102.935 61.3655 102.468 62.229 102.193 63.1598C101.72 64.5713 101.462 66.0458 101.428 67.5338C101.413 68.375 101.332 69.4294 100.549 69.7358C100.608 69.1172 100.538 68.4931 100.343 67.9031C100.147 67.3131 99.8313 66.7699 99.4148 66.3081L99.3967 66.2901C99.3967 66.206 99.3967 66.1279 99.3967 66.0438C99.3733 64.6792 99.6224 63.3236 100.129 62.0561C100.636 60.7886 101.391 59.6345 102.35 58.6613C103.308 57.688 104.452 56.915 105.713 56.3873C106.974 55.8596 108.327 55.5879 109.695 55.5879C111.062 55.5879 112.416 55.8596 113.677 56.3873C114.938 56.915 116.081 57.688 117.039 58.6613C117.998 59.6345 118.753 60.7886 119.26 62.0561C119.767 63.3236 120.016 64.6792 119.993 66.0438H119.99Z" fill="black"/>
<path d="M113.958 49.7224C112.394 48.9881 110.615 48.8492 108.956 49.3319C108.122 49.5782 107.336 49.9777 106.491 50.179C104.685 50.6146 102.578 50.143 101.028 51.1974C100.167 51.7982 99.6495 52.7476 99.1679 53.6698L97.964 55.959C97.3079 57.2117 96.6457 58.4854 96.3718 59.8643C96.0979 61.2432 96.2635 62.7874 97.1393 63.8959C97.7774 64.704 98.7194 65.2117 99.4117 65.9717C99.8264 66.434 100.141 66.9769 100.336 67.5662C100.53 68.1555 100.601 68.7786 100.543 69.3965C101.329 69.096 101.404 68.0386 101.422 67.1974C101.456 65.7094 101.713 64.2349 102.187 62.8234C102.461 61.8923 102.928 61.0287 103.556 60.2879C103.874 59.9209 104.266 59.6256 104.706 59.4215C105.147 59.2174 105.626 59.1093 106.111 59.1043C107.315 59.1464 108.396 59.9755 109.588 59.8764C110.491 59.8013 111.291 59.1854 112.2 59.0652C113.002 58.9895 113.803 59.2156 114.446 59.6991C115.082 60.181 115.639 60.7587 116.098 61.4115C117.741 63.5714 119.075 66.1039 119.153 68.8137C119.493 69.063 119.984 68.7385 120.152 68.354C120.321 67.9695 120.327 67.5189 120.54 67.1524C120.787 66.7288 121.26 66.5035 121.63 66.185C122.569 65.3769 122.804 64.0161 122.768 62.7814C122.732 61.5467 122.491 60.2939 122.725 59.0803C122.867 58.3352 123.186 57.6383 123.361 56.9023C123.535 56.1663 123.556 55.3401 123.144 54.7062C122.542 53.775 121.275 53.5917 120.17 53.5046C118.915 53.3964 117.792 53.5346 116.992 52.4802C116.616 51.9299 116.193 51.4133 115.728 50.9361C115.568 50.7798 113.958 49.7885 113.958 49.7224Z" fill="#512E4E"/>
<path opacity="0.1" d="M81.2447 113.073L78.0995 107.269L77.1033 116.225C77.1033 116.225 77.6571 120.202 77.5457 120.812C77.4343 121.422 79.8151 126.889 79.8151 126.889C79.8151 126.889 87.6797 140.871 90.8911 141.592L101.741 133.853L98.864 130.206C98.864 130.206 97.8678 129.818 97.618 130.206C97.618 130.206 92.2756 121.031 91.7218 120.367C91.168 119.703 91.2764 118.379 91.2764 118.379C91.2764 118.379 90.4457 117.495 90.7226 116.666C90.9995 115.837 89.1183 112.962 89.1183 112.962L90.8339 111.361L81.2447 113.073Z" fill="black"/>
<path d="M78.2649 106.609L77.4342 107.27L76.438 116.225C76.438 116.225 76.9918 120.202 76.8804 120.812C76.7691 121.422 79.1528 126.89 79.1528 126.89C79.1528 126.89 87.0144 140.871 90.2258 141.592L101.079 133.853L98.1987 130.206C98.1987 130.206 97.2025 129.819 96.9527 130.206C96.9527 130.206 91.6103 121.031 91.0565 120.368C90.5027 119.704 90.6141 118.379 90.6141 118.379C90.6141 118.379 89.7834 117.496 90.0603 116.666C90.3372 115.837 88.4531 112.962 88.4531 112.962L90.1686 111.361L78.2649 106.609Z" fill="white"/>
<path opacity="0.1" d="M129.814 141.691C130.415 142.421 130.036 145.698 130.036 145.698L128.375 148.444C128.375 148.444 128.474 150.217 128.48 152.605L125.687 153.476C125.435 153.555 125.167 153.572 124.907 153.526C124.646 153.481 124.4 153.374 124.19 153.214C123.979 153.055 123.81 152.847 123.696 152.609C123.582 152.371 123.527 152.109 123.535 151.845L124.017 136.34L130.533 138.828C129.979 139.212 130.587 140.156 130.587 140.156C130.587 140.156 129.206 140.961 129.814 141.691Z" fill="black"/>
<path d="M130.148 141.357C130.75 142.087 130.37 145.368 130.37 145.368L128.709 148.114C128.709 148.114 128.808 149.883 128.817 152.274L125.973 153.161C125.726 153.237 125.464 153.254 125.209 153.209C124.954 153.164 124.713 153.059 124.507 152.903C124.301 152.747 124.136 152.543 124.024 152.31C123.912 152.077 123.858 151.821 123.866 151.562L124.351 136.01L130.87 138.497C130.313 138.882 130.921 139.822 130.921 139.822C130.921 139.822 129.546 140.63 130.148 141.357Z" fill="white"/>
<path d="M132.306 133.967C132.306 133.967 131.863 136.788 130.756 136.953C129.648 137.119 129.151 141.517 128.047 141.36C126.942 141.204 127.674 137.272 127.713 136.509C127.752 135.746 126.509 132.585 127.439 131.867C128.369 131.149 131.312 131.867 131.312 131.867L132.306 133.967Z" fill="#CF6F80"/>
<path opacity="0.1" d="M134.662 112.244L136.751 108.038C136.751 108.038 137.582 111.244 137.582 112.956C137.582 114.669 138.744 114.837 138.744 114.837C138.744 114.837 140.017 116.339 139.346 117.432C138.674 118.526 138.403 121.248 138.403 121.248C138.403 121.248 138.623 126.442 137.627 127.16C136.631 127.878 136.423 129.593 136.423 129.593C136.423 129.593 134.593 132.853 134.65 133.628C134.707 134.403 132.104 139.651 132.104 139.651C132.104 139.651 133.377 133.129 125.958 130.311C125.958 130.311 125.901 128.097 126.455 127.49C127.008 126.883 127.872 126.607 127.331 123.54C126.789 120.473 127.174 116.808 127.174 116.072C127.174 115.335 128.835 110.745 128.835 110.745L134.662 112.244Z" fill="black"/>
<path d="M135.565 107.438L137.389 108.038C137.389 108.038 138.223 111.244 138.223 112.956C138.223 114.669 139.385 114.837 139.385 114.837C139.385 114.837 140.658 116.339 139.987 117.432C139.315 118.526 139.048 121.248 139.048 121.248C139.048 121.248 139.267 126.442 138.271 127.16C137.275 127.878 137.052 129.593 137.052 129.593C137.052 129.593 135.225 132.853 135.282 133.628C135.34 134.403 132.733 139.651 132.733 139.651C132.733 139.651 134.009 133.129 126.587 130.311C126.587 130.311 126.533 128.097 127.087 127.49C127.641 126.883 128.504 126.607 127.963 123.54C127.421 120.473 127.806 116.808 127.806 116.071C127.806 115.335 129.467 110.745 129.467 110.745L135.565 107.438Z" fill="white"/>
<path opacity="0.1" d="M95.2793 216.449C95.2793 216.449 98.1868 214.625 100.095 215.95C102.003 217.275 95.2793 216.449 95.2793 216.449Z" fill="black"/>
<path opacity="0.1" d="M117.871 210.81C117.871 210.81 120.444 210.479 122.605 212.802C124.766 215.124 117.871 210.81 117.871 210.81Z" fill="black"/>
<g opacity="0.1">
<path opacity="0.1" d="M121.636 65.5271C121.266 65.8455 120.79 66.0738 120.543 66.4974C120.333 66.8609 120.327 67.3085 120.158 67.6991C119.99 68.0896 119.499 68.408 119.159 68.1617C119.081 65.458 117.744 62.9195 116.104 60.7565C115.645 60.1037 115.088 59.5261 114.452 59.0442C113.807 58.5608 113.006 58.3347 112.203 58.4103C111.3 58.5335 110.506 59.1463 109.594 59.2214C108.39 59.3235 107.309 58.4914 106.114 58.4493C105.629 58.4542 105.15 58.5625 104.71 58.7672C104.27 58.9718 103.878 59.2681 103.562 59.636C102.934 60.3757 102.467 61.2383 102.193 62.1685C101.72 63.58 101.462 65.0545 101.428 66.5425C101.41 67.3806 101.332 68.4261 100.555 68.7385C100.573 68.9604 100.573 69.1835 100.555 69.4054C101.338 69.105 101.416 68.0475 101.434 67.2064C101.468 65.7184 101.726 64.2438 102.199 62.8324C102.473 61.9013 102.94 61.0377 103.568 60.2969C103.885 59.93 104.276 59.6346 104.717 59.4305C105.157 59.2264 105.635 59.1183 106.121 59.1133C107.324 59.1553 108.408 59.9844 109.6 59.8853C110.503 59.8102 111.303 59.1944 112.209 59.0742C113.012 58.9986 113.813 59.2247 114.458 59.7081C115.094 60.19 115.651 60.7677 116.11 61.4204C117.75 63.5804 119.087 66.1129 119.165 68.8226C119.505 69.0719 119.996 68.7475 120.164 68.363C120.333 67.9784 120.339 67.5278 120.549 67.1613C120.796 66.7377 121.272 66.5124 121.642 66.194C122.581 65.3859 122.816 64.025 122.78 62.7903C122.78 62.7513 122.78 62.7122 122.78 62.6762C122.722 63.7456 122.437 64.8361 121.636 65.5271Z" fill="black"/>
<path opacity="0.1" d="M99.4177 65.3137C98.7255 64.5537 97.7804 64.046 97.1453 63.2409C96.6106 62.5282 96.3052 61.6702 96.2695 60.7805C96.1748 61.8923 96.4858 63.0008 97.1453 63.9018C97.7804 64.7099 98.7255 65.2176 99.4177 65.9777C100.082 66.7211 100.481 67.6635 100.552 68.6573C100.598 68.0525 100.522 67.4446 100.327 66.87C100.132 66.2955 99.8226 65.7661 99.4177 65.3137Z" fill="black"/>
<path opacity="0.1" d="M123.367 56.2442C123.189 56.9802 122.873 57.6802 122.728 58.4222C122.643 58.9181 122.612 59.4217 122.635 59.9243C122.645 59.638 122.676 59.3528 122.728 59.0711C122.873 58.3261 123.189 57.6291 123.367 56.8931C123.47 56.4872 123.504 56.0666 123.466 55.6494C123.447 55.8498 123.414 56.0486 123.367 56.2442Z" fill="black"/>
</g>
<path opacity="0.1" d="M41.049 228.663C57.246 228.663 70.3763 226.559 70.3763 223.962C70.3763 221.365 57.246 219.26 41.049 219.26C24.852 219.26 11.7217 221.365 11.7217 223.962C11.7217 226.559 24.852 228.663 41.049 228.663Z" fill="#587EEC"/>
<path d="M41.9941 133.898H40.107V176.308H41.9941V133.898Z" fill="#535461"/>
<path d="M53.8526 176.178L53.7352 178.089L53.5667 180.793L53.4975 181.916L53.3319 184.62L53.2597 185.744L53.0911 188.447L51.189 219.11C51.1063 220.43 50.5231 221.668 49.558 222.573C48.5929 223.479 47.3184 223.983 45.9941 223.983H36.1039C34.7799 223.983 33.5058 223.478 32.5412 222.573C31.5766 221.668 30.994 220.429 30.912 219.11L29.0189 188.426L28.8504 185.723L28.7811 184.599L28.6126 181.895L28.5434 180.772L28.3748 178.068L28.2544 176.157C28.2335 175.79 28.2881 175.422 28.4148 175.076C28.5416 174.73 28.7378 174.413 28.9914 174.146C29.2451 173.878 29.5508 173.665 29.8899 173.52C30.229 173.375 30.5942 173.3 30.9632 173.3H51.192C51.5596 173.304 51.9227 173.382 52.2588 173.531C52.5949 173.679 52.897 173.895 53.1463 174.165C53.3956 174.434 53.5869 174.752 53.7084 175.099C53.8299 175.445 53.879 175.812 53.8526 176.178Z" fill="#3F3D56"/>
<path d="M53.7353 178.089L53.5667 180.784H28.5313L28.3628 178.089H53.7353Z" fill="#9D9CB5"/>
<path d="M53.4975 181.907L53.332 184.605H28.7691L28.6006 181.907H53.4975Z" fill="#9D9CB5"/>
<path d="M53.2597 185.731L53.0942 188.426H29.0069L28.8383 185.731H53.2597Z" fill="#9D9CB5"/>
<path d="M25.4824 149.793C36.4711 157.73 41.058 170.143 41.058 170.143C41.058 170.143 27.8149 169.689 16.8232 161.752C5.83148 153.815 1.2536 141.405 1.2536 141.405C1.2536 141.405 14.4906 141.856 25.4824 149.793Z" fill="#587EEC"/>
<path d="M1.24463 141.405C1.24463 141.405 14.9933 149.021 19.4027 155.327C23.812 161.632 41.058 170.143 41.058 170.143" stroke="#535461" stroke-width="2" stroke-miterlimit="10"/>
<path d="M32.5764 133.805C38.5569 138.122 41.058 144.878 41.058 144.878C41.058 144.878 33.8496 144.632 27.8661 140.315C21.8827 135.998 19.3876 129.239 19.3876 129.239C19.3876 129.239 26.593 129.485 32.5764 133.805Z" fill="#587EEC"/>
<path d="M19.3876 129.239C19.3876 129.239 26.8699 133.384 29.2687 136.815C31.6675 140.246 41.058 144.878 41.058 144.878" stroke="#535461" stroke-width="2" stroke-miterlimit="10"/>
<path d="M49.7413 144.536C42.87 152.073 41.4163 161.924 41.4163 161.924C41.4163 161.924 51.1048 159.55 57.9701 152.01C64.8354 144.47 66.2951 134.622 66.2951 134.622C66.2951 134.622 56.6127 136.998 49.7413 144.536Z" fill="#587EEC"/>
<path d="M66.3012 134.625C66.3012 134.625 57.3501 142.352 55.0747 147.675C52.7993 152.998 41.4163 161.924 41.4163 161.924" stroke="#535461" stroke-width="2" stroke-miterlimit="10"/>
<path d="M301.979 141.883C301.979 141.883 297.01 117.207 298.912 114.137C298.912 114.137 298.981 111.283 298.867 107.645C298.867 107.507 298.867 107.369 298.867 107.227C299.202 107.45 299.551 107.651 299.911 107.828C301.664 108.727 303.676 108.986 305.6 108.561L304.095 106.888C303.734 106.488 303.358 106.056 303.279 105.527C303.201 104.998 303.418 104.527 303.605 104.055C305.034 100.45 305.109 95.9168 302.355 93.165C300.029 90.8518 299.463 87.8657 296.938 85.7538C295.093 84.2067 294.079 81.9386 293.121 79.7456C292.312 77.892 291.496 76.0234 291.033 74.0587C290.671 72.5236 290.527 70.9344 290.03 69.4354C289.534 67.9363 288.604 66.4793 287.15 65.8094C286.632 65.5721 286.057 65.4369 285.585 65.1214C284.965 64.7039 284.592 64.0249 284.143 63.4301C281.865 60.426 274.235 62.1954 270.623 63.4151C269.641 63.7222 268.732 64.2251 267.951 64.8931L267.984 64.8391C268.011 64.794 268.044 64.7489 268.074 64.7039C267.679 65.0229 267.337 65.4033 267.063 65.8304C266.536 66.6626 266.316 67.6329 265.877 68.5341C265.347 69.6006 262.401 72.5777 263.668 73.7764C263.756 73.8569 263.858 73.9218 263.969 73.9686C264.444 74.1662 264.968 74.2185 265.474 74.1188L265.419 74.248C264.987 75.3056 264.765 76.4372 264.766 77.5796C264.766 82.5154 268.844 86.5169 273.88 86.5169C274.826 86.5178 275.768 86.3729 276.67 86.0873C276.691 86.2014 276.709 86.3156 276.73 86.4298C276.73 86.4748 276.745 86.5199 276.751 86.5649L276.592 86.7873C276.584 86.7735 276.575 86.7605 276.565 86.7482L271.839 93.3393C271.117 93.847 266.957 96.8511 266.723 99.1042C266.476 101.571 266.229 104.458 266.229 104.458L266.196 105.076C265.989 105.249 265.748 105.374 265.488 105.444C265.228 105.514 264.956 105.527 264.691 105.482C263.216 105.242 263.216 110.889 263.216 110.889C263.216 110.889 262.235 111.791 261.561 111.01C260.887 110.229 259.105 112.875 259.105 112.875L247.939 113.356L247.683 113.371L247.081 111.511C247.016 111.315 246.876 111.152 246.692 111.058C246.508 110.965 246.294 110.947 246.097 111.01C246.05 111.025 246.005 111.044 245.961 111.067L245.919 111.091L245.841 111.145L245.802 111.181C245.78 111.2 245.76 111.221 245.741 111.244L245.705 111.286L245.687 111.304C245.618 111.4 245.572 111.511 245.553 111.628C245.534 111.744 245.543 111.864 245.579 111.977L246.097 113.572C243.942 114.005 241.738 115.224 243.535 118.583L234.428 116.904L237.374 119.373L252.586 122.506C252.384 122.867 252.516 123.39 253.145 124.126C255.854 127.301 260.79 128.163 262.777 128.385C263.301 129.557 263.957 130.665 264.73 131.69L264.559 134.853C264.559 134.853 259.529 158.965 258.608 160.187C259.073 159.661 259.499 159.102 259.881 158.514C258.422 163.468 256.381 170.248 255.845 171.263C254.984 172.886 254.187 179.45 255.168 179.87C255.469 179.999 256.33 179.936 257.558 179.843V180.387L257.504 200.992C257.504 200.992 257.75 213.631 257.073 214.835C256.396 216.04 256.215 218.567 256.215 218.567C256.215 218.567 253.507 223.55 251.361 225.554C251.346 225.57 251.33 225.584 251.313 225.596L251.246 225.128C251.246 225.128 248.667 228.378 242.96 228.195C242.96 228.195 239.526 230.424 244.619 230.544C249.711 230.664 256.215 230.364 256.215 230.364C256.215 230.364 260.757 223.454 264.562 224.356V229.592H265.726V224.271C266.267 223.916 266.729 223.456 267.085 222.917C267.442 222.379 267.685 221.773 267.8 221.138C267.9 220.483 267.827 219.814 267.588 219.196C267.35 218.578 266.954 218.033 266.44 217.614C266.209 217.406 266.023 217.152 265.896 216.869C265.768 216.585 265.7 216.279 265.696 215.968L265.654 216.004C265.654 215.899 265.627 215.791 265.615 215.68C265.281 212.976 264.863 207.397 266.34 203.27C268.366 197.61 268.98 189.727 267.505 185.034C267.029 183.534 266.638 182.009 266.334 180.465C266.298 180.27 266.265 180.084 266.235 179.909C267.243 180.046 268.241 180.246 269.224 180.51C272.64 181.45 280.113 181.625 286.494 181.574C286.509 181.748 286.527 181.931 286.548 182.114C286.662 183.388 286.9 184.648 287.258 185.876C288.059 188.279 288.426 198.874 288.426 198.874C288.426 198.874 289.459 207.586 288.896 211.131C288.595 213.102 288.294 215.082 288.122 217.07V217.11C288.122 217.11 286.431 221.916 285.194 224.527C285.164 224.593 285.13 224.659 285.1 224.722C284.771 224.752 284.446 224.824 284.134 224.935C284.134 224.935 282.476 228.24 280.823 228.787C279.171 229.333 279.719 231.133 283.46 230.472C287.201 229.811 292.851 229.27 292.851 229.27L293.094 225.9L294.244 224.464L293.943 227.825L295.168 227.585L295.006 223.496L296.887 221.147C296.887 221.147 299.159 219.128 295.782 215.157V215.244C295.746 215.187 295.713 215.127 295.674 215.07V215.052C295.114 214.187 294.668 212.573 295.484 209.71C296.959 204.537 297.817 199.842 297.817 199.842C297.817 199.842 301.109 187.263 297.152 181.312H297.326C296.92 180.475 296.634 179.585 296.474 178.669C296.454 178.561 296.436 178.449 296.42 178.335C299.349 178.167 302.223 177.638 304.568 176.497C304.559 176.485 303.147 146.636 301.979 141.883ZM264.799 121.064V121.124L264.197 121.155L264.799 121.064ZM262.735 121.35C262.636 121.372 262.543 121.416 262.464 121.479C262.205 121.844 262.042 122.269 261.991 122.714L261.052 122.503C261.052 122.503 260.393 122.362 259.445 122.203L258.996 121.752C260.23 121.65 261.513 121.5 262.735 121.35Z" fill="url(#paint1_linear_6_207)"/>
<path d="M293.805 223.538L293.447 227.795L294.647 227.555L294.467 222.938L293.805 223.538Z" fill="#1D2366"/>
<path d="M266.406 203.326C264.959 207.442 265.368 212.997 265.693 215.694C265.814 216.692 265.925 217.299 265.925 217.299C265.925 217.299 263.761 222.219 263.58 222.406C263.4 222.592 257.212 226.362 257.212 226.362L252.887 228.883C252.887 228.883 248.498 226.963 250.602 226.302C251.032 226.13 251.419 225.866 251.737 225.53C253.844 223.532 256.489 218.566 256.489 218.566C256.489 218.566 256.67 216.046 257.332 214.847C257.994 213.649 257.753 201.052 257.753 201.052L257.805 180.519V177.842L266.036 177.902C266.088 178.811 266.207 179.715 266.391 180.606C266.687 182.145 267.07 183.665 267.538 185.16C268.989 189.844 268.387 197.688 266.406 203.326Z" fill="#FFB0B1"/>
<path opacity="0.1" d="M265.925 217.299C265.925 217.299 263.761 222.22 263.58 222.406C263.4 222.592 257.212 226.362 257.212 226.362L252.887 228.883C252.887 228.883 248.498 226.963 250.602 226.302C251.032 226.13 251.419 225.867 251.737 225.53L251.923 226.843L253.365 226.783L265.705 215.701C265.814 216.692 265.925 217.299 265.925 217.299Z" fill="black"/>
<path d="M265.775 215.98L253.365 227.137L251.923 227.197L251.622 225.095C251.622 225.095 249.1 228.333 243.496 228.153C243.496 228.153 240.131 230.373 245.118 230.493C250.106 230.613 256.474 230.313 256.474 230.313C256.474 230.313 260.923 223.403 264.646 224.304V229.523H265.79V224.256C266.321 223.899 266.775 223.438 267.124 222.901C267.472 222.364 267.709 221.762 267.818 221.132C267.917 220.483 267.847 219.819 267.615 219.204C267.382 218.59 266.995 218.045 266.491 217.623C266.266 217.412 266.086 217.158 265.963 216.875C265.84 216.593 265.775 216.288 265.775 215.98Z" fill="#1D2366"/>
<path d="M294.948 209.743C294.148 212.597 294.584 214.205 295.132 215.067V215.085C295.834 216.149 296.323 217.34 296.571 218.591L296.619 218.861L290.972 227.077L287.908 228.279C287.908 228.279 282.981 226.6 283.881 226.119C284.107 226.002 284.459 225.377 284.863 224.515C286.066 221.916 287.728 217.122 287.728 217.122V217.083C287.902 215.103 288.179 213.129 288.486 211.164C289.037 207.629 288.026 198.95 288.026 198.95C288.026 198.95 287.665 188.396 286.882 185.996C286.529 184.775 286.294 183.524 286.181 182.259C286.018 180.757 285.982 179.519 285.982 179.519C285.982 179.519 289.227 175.013 295.174 179.879C295.65 180.267 296.068 180.721 296.417 181.225C300.525 187.059 297.218 199.911 297.218 199.911C297.218 199.911 296.39 204.585 294.948 209.743Z" fill="#FFB0B1"/>
<path opacity="0.1" d="M296.628 218.861L290.981 227.077L287.918 228.279C287.918 228.279 282.991 226.6 283.89 226.119C284.116 226.002 284.468 225.377 284.872 224.515C286.957 224.497 288.038 226.479 288.038 226.479L290.68 226.059C290.68 226.059 294.166 219.221 294.948 218.804C295.731 218.386 295.069 215.683 295.069 215.683V214.995C295.09 215.019 295.108 215.046 295.132 215.07V215.088C295.835 216.152 296.323 217.343 296.571 218.594L296.628 218.861Z" fill="black"/>
<path d="M288.218 226.657C288.218 226.657 286.714 223.899 283.83 224.917C283.83 224.917 282.208 228.222 280.586 228.757C278.963 229.291 279.505 231.094 283.171 230.436C286.837 229.778 292.363 229.234 292.363 229.234L292.604 225.873L296.33 221.135C296.33 221.135 298.551 219.125 295.246 215.169V215.857C295.246 215.857 295.908 218.561 295.126 218.978C294.343 219.396 290.87 226.236 290.87 226.236L288.218 226.657Z" fill="#1D2366"/>
<path opacity="0.1" d="M266.045 177.897C266.097 178.805 266.216 179.709 266.4 180.6C263.011 180.105 259.866 180.351 257.805 180.513V177.837L266.045 177.897Z" fill="black"/>
<path opacity="0.1" d="M296.751 181.973C296.751 181.973 291.936 182.208 286.193 182.256C286.03 180.754 285.994 179.516 285.994 179.516C285.994 179.516 289.239 175.01 295.186 179.876C295.662 180.265 296.08 180.718 296.429 181.222C296.522 181.478 296.63 181.729 296.751 181.973Z" fill="black"/>
<path d="M296.751 181.432C296.751 181.432 275.659 182.451 269.23 180.651C262.801 178.852 256.429 180.411 255.469 179.993C254.509 179.576 255.288 173.036 256.131 171.417C256.974 169.797 261.597 153.422 261.597 153.422L266.045 130.272L270.732 128.983L271.063 128.89L279.228 126.643L285.212 124.994C285.212 124.994 297.109 171.356 296.089 174.775C295.719 176.084 295.659 177.461 295.915 178.798C296.07 179.71 296.352 180.597 296.751 181.432Z" fill="#1D2366"/>
<path d="M250.539 114.44C250.539 114.44 246.325 118.946 249.516 121.458C252.706 123.969 254.804 121.698 254.804 121.698L250.539 114.44Z" fill="#C7DAF5"/>
<path opacity="0.1" d="M250.539 114.44C250.539 114.44 246.325 118.946 249.516 121.458C252.706 123.969 254.804 121.698 254.804 121.698L250.539 114.44Z" fill="black"/>
<path d="M284.583 84.8136C284.583 84.8136 284.089 85.2822 283.346 85.9732C282.286 86.9615 280.718 88.4065 279.328 89.6172C277.401 91.2905 275.812 92.5192 276.381 91.4707C276.95 90.4223 276.842 88.5958 276.559 86.8864C276.538 86.7723 276.519 86.6581 276.498 86.547C276.264 85.2916 275.954 84.0516 275.568 82.8339C275.568 82.8339 278.68 78.8203 280.402 77.2372C281.043 76.6363 281.492 76.39 281.519 76.8076C281.549 77.3694 281.97 78.6101 282.494 79.9259C282.509 79.9679 282.524 80.007 282.542 80.049C282.891 80.9503 283.285 81.8755 283.632 82.6746C284.161 83.9003 284.583 84.8136 284.583 84.8136Z" fill="#FFB0B1"/>
<path opacity="0.1" d="M282.542 80.0489C282.25 81.619 281.54 83.0819 280.487 84.2846C279.435 85.4874 278.078 86.3859 276.559 86.8863C276.319 85.515 275.988 84.1611 275.568 82.8338C275.568 82.8338 281.428 75.2784 281.519 76.8075C281.54 77.3873 281.997 78.673 282.542 80.0489Z" fill="black"/>
<path opacity="0.1" d="M275.975 88.9052L276.733 87.8387C276.733 87.8387 277.236 90.897 279.084 89.5481C280.932 88.1992 281.022 99.6991 281.022 99.6991L279.039 129.299L264.706 128.443L265.112 114.14L266.735 106.93L270.747 96.4486L273.133 92.9848L275.975 88.9052Z" fill="black"/>
<path d="M281.022 99.8823L279.216 126.646L279.027 129.482L271.036 129.004L270.735 128.986L264.715 128.626L265.121 114.32L266.744 107.11L270.756 96.6288L273.142 93.1651L275.984 89.0704L276.742 88.007C276.742 88.007 277.245 91.0652 279.093 89.7163L279.132 89.6893C280.938 88.5477 281.022 99.8823 281.022 99.8823Z" fill="#1D2366"/>
<path d="M266.945 104.605C266.945 104.605 266.226 106.107 264.781 105.864C263.337 105.62 263.34 111.271 263.34 111.271C263.34 111.271 262.379 112.172 261.717 111.391C261.055 110.61 259.309 113.251 259.309 113.251L248.372 113.731C248.372 113.731 253.239 115.951 252.285 122.669C252.285 122.669 268.808 121.647 269.35 120.088C269.892 118.529 266.945 104.605 266.945 104.605Z" fill="white"/>
<path opacity="0.03" d="M266.945 104.605C266.945 104.605 266.226 106.107 264.781 105.864C263.337 105.62 263.34 111.271 263.34 111.271C263.34 111.271 262.379 112.172 261.717 111.391C261.055 110.61 259.309 113.251 259.309 113.251L248.372 113.731C248.372 113.731 253.239 115.951 252.285 122.669C252.285 122.669 268.808 121.647 269.35 120.088C269.892 118.529 266.945 104.605 266.945 104.605Z" fill="black"/>
<path d="M235.159 117.261L238.042 119.719L261.778 124.696L258.834 121.698L235.159 117.261Z" fill="white"/>
<path d="M276.02 89.8515C275.625 90.4523 274.497 93.5285 273.555 96.2142C272.769 98.4523 272.113 100.42 272.113 100.42C272.113 100.42 270.581 110.376 269.799 112.175C269.016 113.975 269.44 120.992 269.44 120.992L266.524 138.323C266.524 138.323 265.203 147.26 263.162 152.599C261.148 157.853 258.906 160.316 258.837 160.395C259.74 159.175 264.661 135.16 264.661 135.16L266.286 104.872C266.286 104.872 266.524 101.994 266.765 99.5338C267.005 97.0734 271.881 93.7148 271.881 93.7148L276.583 87.0426C277.055 87.6735 276.739 88.773 276.02 89.8515Z" fill="white"/>
<path d="M263.761 128.776C263.761 128.776 256.838 128.476 253.486 124.456C250.133 120.437 261.236 122.852 261.236 122.852L264.122 123.513L263.761 128.776Z" fill="#FFB0B1"/>
<path opacity="0.1" d="M296.089 174.778C295.719 176.087 295.659 177.465 295.914 178.801C288.363 179.335 280.285 177.299 280.285 177.299C278.78 178.681 274.816 180.717 274.816 180.717L272.655 153.981C271.273 150.376 270.732 131.489 270.732 131.489C270.732 131.489 270.855 130.5 271.033 129.019C271.033 128.983 271.033 128.944 271.048 128.908C271.586 124.771 272.655 117.006 273.179 115.957C273.901 114.515 270.957 110.679 270.957 110.679L272.297 99.2784L272.459 97.9025C275.282 96.6437 277.446 92.6242 277.446 92.6242L279.108 89.7192C280.914 88.5626 281.007 99.8972 281.007 99.8972L279.201 126.661L285.185 125.012C285.185 125.012 297.109 171.36 296.089 174.778Z" fill="black"/>
<path d="M303.839 176.626C295.607 180.706 280.646 176.926 280.646 176.926C279.141 178.308 275.177 180.345 275.177 180.345L273.013 153.608C271.635 150.003 271.093 131.116 271.093 131.116C271.093 131.116 272.832 117.024 273.555 115.585C273.765 115.164 273.663 114.54 273.413 113.867C272.185 110.664 271.733 107.216 272.095 103.806L272.673 98.906L272.832 97.5332C275.659 96.2714 277.823 92.2519 277.823 92.2519L279.328 89.6203L282.097 84.7716L283.409 82.4764L283.632 82.6777L285.332 84.2158C285.332 84.2158 286.054 84.8167 287.138 85.7179C289.495 87.7006 293.567 91.1914 295.668 93.3274C297.516 95.208 298.1 102.523 298.268 108.03C298.379 111.656 298.313 114.497 298.313 114.497C296.45 117.559 301.323 142.136 301.323 142.136C302.458 146.885 303.839 176.626 303.839 176.626Z" fill="white"/>
<path opacity="0.03" d="M288.038 92.1918C288.038 92.1918 282.389 102.926 283.045 107.005C283.701 111.085 285.567 115.702 284.667 116.781C284.358 117.189 283.958 117.521 283.499 117.75C283.04 117.978 282.534 118.098 282.021 118.099C281.118 118.16 278.711 119.839 278.711 120.019C278.711 120.199 276.486 120.199 274.497 121.04C272.507 121.882 269.57 122.359 269.57 122.359C269.57 122.359 263.851 122.179 263.319 122.72C262.786 123.261 262.238 126.496 263.379 129.077C264.519 131.657 265.787 133.583 266.744 133.934C267.701 134.286 273.775 132.255 278.702 131.774C283.629 131.294 288.977 127.397 288.977 127.397C288.977 127.397 294.867 125.294 295.899 121.758C296.932 118.223 294.638 98.7889 294.638 98.7889C294.638 98.7889 292.905 89.7314 288.038 92.1918Z" fill="black"/>
<path opacity="0.03" d="M287.316 91.2906C287.316 91.2906 281.666 102.027 282.328 106.104C282.99 110.181 284.85 114.801 283.948 115.882C283.639 116.291 283.24 116.623 282.782 116.852C282.323 117.081 281.818 117.201 281.305 117.201C280.402 117.261 277.994 118.941 277.994 119.121C277.994 119.301 275.77 119.301 273.78 120.139C271.791 120.977 268.853 121.458 268.853 121.458C268.853 121.458 263.135 121.278 262.605 121.819C262.075 122.359 261.522 125.598 262.665 128.175C263.809 130.753 265.073 132.682 266.03 133.033C266.987 133.384 273.061 131.354 277.988 130.876C282.915 130.398 288.264 126.496 288.264 126.496C288.264 126.496 294.151 124.393 295.171 120.86C296.191 117.327 293.91 97.8876 293.91 97.8876C293.91 97.8876 292.182 88.8332 287.316 91.2906Z" fill="black"/>
<path d="M287.86 91.651C287.86 91.651 282.211 102.388 282.873 106.464C283.535 110.541 285.395 115.161 284.495 116.24C284.187 116.65 283.788 116.983 283.329 117.212C282.869 117.442 282.363 117.561 281.85 117.562C280.947 117.622 278.539 119.301 278.539 119.478C278.539 119.656 276.318 119.659 274.325 120.5C272.333 121.341 269.398 121.818 269.398 121.818C269.398 121.818 263.68 121.638 263.147 122.179C262.614 122.72 262.066 125.958 263.207 128.536C264.348 131.113 265.615 133.042 266.572 133.393C267.529 133.745 273.603 131.714 278.53 131.233C283.457 130.753 288.805 126.856 288.805 126.856C288.805 126.856 294.695 124.754 295.728 121.218C296.76 117.682 294.482 98.2481 294.482 98.2481C294.482 98.2481 292.724 89.2056 287.86 91.651Z" fill="white"/>
<path opacity="0.1" d="M287.737 120.449C287.737 120.449 283.222 119.547 284.793 121.049C286.364 122.551 286.355 123.867 288.279 123.807C290.202 123.747 287.737 120.449 287.737 120.449Z" fill="black"/>
<path opacity="0.1" d="M295.367 152.767C295.367 152.767 293.326 154.146 297.23 157.324C301.133 160.503 295.367 152.767 295.367 152.767Z" fill="black"/>
<path opacity="0.1" d="M291.472 164.102C291.472 164.282 290.75 170.711 293.452 172.318C296.155 173.925 291.472 164.102 291.472 164.102Z" fill="black"/>
<path d="M248.559 113.716C246.379 113.791 241.672 114.455 244.113 119.001C246.271 123.023 249.898 120.334 251.938 118.295C251.441 116.393 250.231 114.754 248.559 113.716Z" fill="#FFB0B1"/>
<path d="M251.966 118.259L252.056 118.166L251.966 118.259Z" fill="#FFB0B1"/>
<path opacity="0.1" d="M287.138 85.9009C284.826 87.4781 282.888 88.8089 282.509 89.0853C281.474 89.8514 279.499 94.3485 278.226 96.6437C277.212 98.4912 273.916 98.9659 272.673 99.0831L272.833 97.7102C275.659 96.4484 277.823 92.4289 277.823 92.4289L283.409 82.6534L285.332 84.3988C285.332 84.3988 286.054 84.9997 287.138 85.9009Z" fill="black"/>
<path d="M287.138 85.7207C284.826 87.2979 282.888 88.6287 282.509 88.9081C281.474 89.6712 279.499 94.1683 278.226 96.4635C277.212 98.311 273.916 98.7857 272.673 98.9029L272.833 97.53C275.659 96.2682 277.823 92.2487 277.823 92.2487L283.409 82.4733L285.332 84.2127C285.332 84.2127 286.054 84.8075 287.138 85.7207Z" fill="#DCE7FF"/>
<path d="M282.689 78.0663C282.691 79.8697 282.143 81.6308 281.118 83.1162C279.908 84.8726 278.108 86.1378 276.043 86.6824C273.979 87.227 271.787 87.0148 269.866 86.0844C267.944 85.154 266.421 83.567 265.572 81.6113C264.722 79.6557 264.604 77.461 265.237 75.4254C265.87 73.3899 267.214 71.6484 269.023 70.5168C270.833 69.3853 272.989 68.9388 275.101 69.2583C277.212 69.5778 279.139 70.6421 280.531 72.2581C281.923 73.8742 282.689 75.9349 282.689 78.0663Z" fill="#FFB0B1"/>
<path opacity="0.1" d="M298.268 108.032C297.046 107.282 296.05 106.215 295.388 104.944C294.885 103.953 294.551 102.808 293.693 102.105C292.92 101.474 291.887 101.321 290.924 101.039C287.758 100.105 285.103 97.2206 285.004 93.9281C284.956 92.3779 285.44 90.8308 285.221 89.2957C285.096 88.4269 284.75 87.6046 284.215 86.9074C283.95 86.574 283.659 86.2616 283.346 85.9731C282.924 85.5766 282.482 85.192 282.097 84.7715C281.854 84.511 281.642 84.2238 281.464 83.9153C281.321 83.6628 281.205 83.396 281.118 83.1192C280.516 81.2806 281.064 79.0997 280.402 77.2401L280.366 77.1379C280.116 76.477 279.607 75.8161 278.9 75.7651C278.193 75.714 277.588 76.2998 276.914 76.5612C275.502 77.1079 273.979 76.1766 272.802 75.2273C271.625 74.278 270.298 73.1935 268.802 73.4038C267.812 73.545 267.03 74.2179 266.118 74.5664C265.912 74.646 265.699 74.7073 265.483 74.7497C266.254 72.8286 267.672 71.2357 269.493 70.2447C271.313 69.2537 273.423 68.9266 275.459 69.3193C277.495 69.7121 279.33 70.8004 280.65 72.3971C281.969 73.9939 282.691 75.9994 282.689 78.0692C282.69 78.6943 282.625 79.3176 282.494 79.9288C282.509 79.9708 282.524 80.0099 282.542 80.052C282.891 80.9532 283.285 81.8785 283.632 82.6776L285.332 84.2157C285.332 84.2157 286.054 84.8165 287.138 85.7178C289.495 87.7005 293.567 91.1913 295.668 93.3272C297.516 95.2138 298.094 102.526 298.268 108.032Z" fill="black"/>
<path d="M266.012 69.0779C266.443 68.2037 266.656 67.2243 267.171 66.3952C267.927 65.1935 269.245 64.4245 270.599 63.9588C274.136 62.7422 281.609 60.9757 283.842 63.9588C284.282 64.5597 284.646 65.2266 285.254 65.6412C285.717 65.9566 286.277 66.0918 286.786 66.3291C288.209 66.996 289.118 68.45 289.603 69.9341C290.088 71.4181 290.232 73.0103 290.587 74.5394C291.042 76.5011 291.839 78.3607 292.634 80.2082C293.57 82.3892 294.563 84.6513 296.369 86.1924C298.834 88.2953 299.379 91.2724 301.666 93.5796C304.375 96.3194 304.288 100.841 302.891 104.431C302.708 104.902 302.5 105.395 302.572 105.897C302.644 106.398 303.018 106.855 303.37 107.254L304.85 108.922C301.347 109.766 297.383 107.939 295.752 104.734C295.249 103.743 294.915 102.601 294.054 101.895C293.284 101.264 292.249 101.114 291.288 100.832C288.122 99.8943 285.468 97.0073 285.368 93.7148C285.32 92.1677 285.805 90.6205 285.585 89.0884C285.463 88.2138 285.115 87.3857 284.577 86.6851C283.749 85.6066 282.5 84.8826 281.826 83.681C280.685 81.6712 281.552 79.0606 280.73 76.9037C280.477 76.2427 279.972 75.5818 279.264 75.5308C278.557 75.4797 277.952 76.0655 277.275 76.3269C275.866 76.8736 274.343 75.9453 273.167 74.993C271.99 74.0407 270.662 72.9592 269.164 73.1725C268.173 73.3107 267.394 73.9836 266.482 74.3351C265.808 74.5935 264.441 74.8248 263.851 74.257C262.605 73.1124 265.492 70.1474 266.012 69.0779Z" fill="#591D4B"/>
<path opacity="0.1" d="M296.589 103.743C296.083 102.751 295.752 101.61 294.891 100.907C294.121 100.276 293.085 100.123 292.122 99.8403C288.959 98.906 286.304 96.019 286.202 92.7265C286.154 91.1794 286.638 89.6292 286.422 88.0971C286.296 87.2281 285.948 86.4059 285.413 85.7089C284.583 84.6304 283.334 83.9064 282.662 82.7047C281.522 80.698 282.389 78.0874 281.564 75.9274C281.314 75.2695 280.805 74.6086 280.101 74.5545C279.397 74.5004 278.786 75.0923 278.112 75.3536C276.703 75.9004 275.177 74.9691 274.003 74.0198C272.829 73.0705 271.496 71.986 270 72.1963C269.01 72.3375 268.227 73.0104 267.319 73.3589C266.644 73.6172 265.275 73.8515 264.685 73.2838C263.445 72.0821 266.331 69.123 266.849 68.0596C267.279 67.1824 267.493 66.206 268.011 65.3769C268.038 65.3318 268.068 65.2868 268.098 65.2417C267.711 65.5619 267.377 65.9411 267.108 66.3652C266.593 67.1944 266.379 68.1677 265.949 69.0479C265.428 70.1114 262.542 73.0795 263.785 74.2721C264.387 74.8429 265.741 74.6086 266.416 74.3502C267.319 73.9987 268.107 73.3258 269.097 73.1876C270.602 72.9743 271.927 74.0588 273.1 75.0081C274.274 75.9574 275.809 76.8887 277.212 76.342C277.886 76.0806 278.476 75.4918 279.198 75.5459C279.92 75.5999 280.402 76.2579 280.664 76.9188C281.486 79.0757 280.619 81.6863 281.759 83.6961C282.434 84.8767 283.683 85.6157 284.51 86.7002C285.049 87.4008 285.396 88.2289 285.519 89.1035C285.738 90.6356 285.254 92.1828 285.302 93.7299C285.401 97.0344 288.056 99.9094 291.222 100.847C292.176 101.129 293.218 101.279 293.988 101.91C294.852 102.616 295.192 103.758 295.686 104.749C297.317 107.954 301.281 109.781 304.784 108.937L304.086 108.15C301.049 108.195 297.976 106.47 296.589 103.743Z" fill="black"/>
<path opacity="0.1" d="M275.839 90.0318C275.445 90.6326 274.316 93.7088 273.374 96.3945C272.492 96.0521 271.692 93.8681 271.692 93.8681L276.393 87.1929C276.875 87.8538 276.559 88.9503 275.839 90.0318Z" fill="black"/>
<path d="M276.02 89.8514C275.626 90.4522 274.497 93.5285 273.555 96.2142C272.673 95.8747 271.872 93.6877 271.872 93.6877L276.574 87.0155C277.055 87.6734 276.739 88.7729 276.02 89.8514Z" fill="#DCE7FF"/>
<path d="M248.685 120.542L246.078 112.337C246.048 112.241 246.036 112.14 246.044 112.04C246.053 111.939 246.081 111.841 246.128 111.752C246.174 111.662 246.238 111.582 246.315 111.518C246.392 111.453 246.482 111.403 246.578 111.373C246.772 111.313 246.982 111.331 247.162 111.425C247.343 111.518 247.479 111.679 247.541 111.872L250.148 120.067L249.889 121.782L248.685 120.542Z" fill="#BE8B87"/>
<path opacity="0.1" d="M246.325 111.616C246.52 111.555 246.731 111.573 246.912 111.667C247.093 111.76 247.229 111.921 247.292 112.115L249.898 120.31L249.702 121.596L249.892 121.795L250.151 120.079L247.529 111.884C247.467 111.691 247.331 111.53 247.151 111.437C246.97 111.343 246.76 111.325 246.566 111.385C246.403 111.438 246.262 111.544 246.166 111.686C246.217 111.658 246.27 111.635 246.325 111.616Z" fill="white"/>
<path d="M248.685 120.542L250.148 120.079L249.934 121.485L249.889 121.795L249.461 121.35L248.685 120.542Z" fill="#EFC8C4"/>
<path d="M249.461 121.35C249.487 121.318 249.519 121.291 249.555 121.272C249.576 121.258 249.601 121.251 249.626 121.251C249.651 121.251 249.675 121.258 249.696 121.272C249.717 121.296 249.734 121.324 249.747 121.353C249.767 121.386 249.794 121.414 249.827 121.436C249.859 121.457 249.896 121.471 249.934 121.476L249.889 121.776L249.461 121.35Z" fill="#727A9C"/>
<path d="M246.063 115.251C246.063 115.251 251.291 115.221 250.06 117.441C248.829 119.662 246.906 119.929 246.906 119.929L246.063 115.251Z" fill="#FFB0B1"/>
<path d="M213.549 15.6193H213.323C204.342 15.6193 196.399 20.3628 191.83 27.3624C187.261 20.3628 179.319 15.6193 170.337 15.6193H170.112C163.371 15.6834 156.929 18.3999 152.184 23.1785C147.439 27.9571 144.776 34.4116 144.772 41.1394C144.772 49.4939 148.438 61.3482 155.586 71.1026C169.206 89.6892 191.83 105.951 191.83 105.951C191.83 105.951 214.455 89.6922 228.071 71.1026C235.222 61.3482 238.885 49.4939 238.885 41.1394C238.881 34.4121 236.218 27.958 231.474 23.1795C226.73 18.401 220.288 15.6842 213.549 15.6193ZM210.319 72.5326C209.296 72.5287 208.299 72.2162 207.457 71.6361C206.615 71.056 205.969 70.2354 205.603 69.2821H200.233C199.88 69.2799 199.536 69.1675 199.249 68.9607C198.963 68.7539 198.748 68.463 198.635 68.1285L196.986 63.1687L191.767 81.3707C191.665 81.7211 191.453 82.0291 191.161 82.2485C190.869 82.4679 190.513 82.5868 190.148 82.5874H190.042C189.661 82.569 189.298 82.4205 189.013 82.1668C188.728 81.9131 188.539 81.5695 188.477 81.1935L183.099 48.9051L179.168 68.0113C179.078 68.3743 178.869 68.6967 178.573 68.927C178.278 69.1573 177.914 69.2823 177.54 69.2821H169.976C169.749 69.2917 169.523 69.2554 169.311 69.1754C169.098 69.0954 168.905 68.9733 168.741 68.8166C168.577 68.6598 168.447 68.4716 168.357 68.2633C168.268 68.055 168.223 67.8308 168.223 67.6043C168.223 67.3778 168.268 67.1536 168.357 66.9453C168.447 66.7369 168.577 66.5487 168.741 66.392C168.905 66.2352 169.098 66.1132 169.311 66.0332C169.523 65.9532 169.749 65.9169 169.976 65.9265H176.215L181.784 40.2381C181.875 39.8583 182.096 39.522 182.408 39.2867C182.72 39.0514 183.105 38.9316 183.496 38.9479C183.887 38.9642 184.26 39.1156 184.552 39.3762C184.843 39.6367 185.035 39.9902 185.094 40.3763L190.587 73.3136L195.264 57.0282C195.362 56.6852 195.568 56.3829 195.851 56.1663C196.135 55.9497 196.481 55.8306 196.838 55.8266H196.872C197.225 55.8267 197.57 55.9383 197.856 56.1454C198.143 56.3526 198.356 56.6447 198.467 56.9802L201.449 65.9355H205.537C205.827 65.0543 206.356 64.2703 207.065 63.6702C207.774 63.07 208.635 62.677 209.553 62.5345C210.472 62.392 211.412 62.5055 212.27 62.8626C213.128 63.2197 213.87 63.8064 214.415 64.558C214.96 65.3095 215.286 66.1968 215.358 67.1218C215.429 68.0467 215.243 68.9735 214.821 69.7997C214.398 70.6259 213.755 71.3195 212.962 71.8039C212.169 72.2882 211.258 72.5446 210.328 72.5446L210.319 72.5326Z" fill="#EC5863"/>
</g>
<defs>
<linearGradient id="paint0_linear_6_207" x1="108.348" y1="232.953" x2="108.348" y2="48.0969" gradientUnits="userSpaceOnUse">
<stop stop-color="#808080" stop-opacity="0.25"/>
<stop offset="0.54" stop-color="#808080" stop-opacity="0.12"/>
<stop offset="1" stop-color="#808080" stop-opacity="0.1"/>
</linearGradient>
<linearGradient id="paint1_linear_6_207" x1="67184.1" y1="139477" x2="67184.1" y2="44588.4" gradientUnits="userSpaceOnUse">
<stop stop-color="#808080" stop-opacity="0.25"/>
<stop offset="0.54" stop-color="#808080" stop-opacity="0.12"/>
<stop offset="1" stop-color="#808080" stop-opacity="0.1"/>
</linearGradient>
</defs>
</svg>
